<?xml version="1.0" encoding="utf-8"?>
<!-- Generator: Adobe Illustrator 16.0.0, SVG Export Plug-In . SVG Version: 6.00 Build 0)  -->
<!DOCTYPE svg PUBLIC "-//W3C//DTD SVG 1.1//EN" "http://www.w3.org/Graphics/SVG/1.1/DTD/svg11.dtd">
<svg version="1.1" id="LOGO_COUNTRY_DML" xmlns="http://www.w3.org/2000/svg" xmlns:xlink="http://www.w3.org/1999/xlink" x="0px"
	 y="0px" width="5000px" height="5000px" viewBox="0 0 5000 5000" enable-background="new 0 0 5000 5000" xml:space="preserve">
<path id="haut_chapeau" fill="#FFFFFF" d="M2097.84,1751.482c-14.299,0.055,138.543-352.115,220.598-346.801
	c66.349,4.286,112.19,45.62,172.151,41.257c93.268-6.78,221.592-87.621,295.163-76.123
	c110.849,17.326,213.717,477.306,188.209,523.474c-23.834,43.166-210.787-8.409-319.271-39.831
	c-59.495-17.227-193.428-62.286-316.337-82.025C2212.702,1751.253,2129.204,1751.354,2097.84,1751.482z"/>
<path id="bas_chapeau" fill="#FFFFFF" d="M1720.699,1918.48c0,0,120.055-129.471,310.439-136.786
	c190.395-7.312,237.594,16.779,384.74,61.416c147.141,44.635,419.803,156.192,513.555,147.492
	c93.754-8.701,135.234-82.529,180.638-115.729c42.226-30.861,69.212-57.729,141.329-43.34
	c72.127,14.382,104.794,60.703,87.645,113.485c-22.641,69.657-89.292,252.465-354.685,245.491
	c-245.19-6.438-487.251-246.07-720.05-313.404C1979.801,1794.814,1720.699,1918.48,1720.699,1918.48z"/>
<path id="etoile" d="M2775.354,1537.136l-7.656,90.397c0,0-97.138-29.773-102.91-27.832c-5.77,1.925,116.312,92.253,118.229,105.705
	c1.926,13.462-44.047,144.264-44.047,144.264s77.83-104.856,93.223-95.242c15.386,9.604,74.062,53.808,74.062,53.808
	s-41.375-75.953-34.659-99.027c4.784-16.44,29.765-60.489,29.765-60.489s-66.34,4.737-70.182-1.994
	C2827.322,1639.995,2775.354,1537.136,2775.354,1537.136z"/>
<text transform="matrix(0.7536 -3.993921e-04 5.299998e-04 1 2005.0513 2601.2871)" display="none" fill="#D64F9A" font-family="'TexasTangoBOLDPERSONALUSE'" font-size="173.8178" letter-spacing="37.156">COUNTRY</text>
<g id="COUNTRY_VECTORISE">
	<path fill="#FFFFFF" d="M1127.308,2663.351l-34.483,49.071c2.479,24.217,7.413,46.465,14.332,66.746
		c15.305,45.13,37.501,68.019,67.568,67.995c21.696,0,40.914-11.138,57.178-33.389c15.269-20.296,24.629-45.152,29.049-74.611
		l35.5,17.66c-3.917,43.832-19.183,81.128-46.283,111.895c-27.092,30.114-57.162,45.187-90.683,45.199
		c-48.316,0.023-86.783-24.173-115.886-71.907c-22.216-36.63-35.051-80.465-39.021-130.842l-35.029-47.087l36.947-49.091
		c4.904-43.838,15.731-81.795,31.981-114.516c27.087-54.309,66.021-81.167,115.815-81.188c27.608-0.011,58.667,3.243,93.676,10.415
		l30.076,2.607l0.079,159.639l-29.085,1.322c-13.354-79.159-39.506-118.396-77.957-118.375
		c-28.098,0.012-49.781,22.921-64.543,68.072c-7.383,22.247-12.301,46.461-14.755,71.979L1127.308,2663.351z"/>
	<path fill="#FFFFFF" d="M1780.006,2663.005l-35.467,50.401c-5.402,46.448-18.193,87.67-38.383,123.662
		c-30.05,53.675-69.471,80.52-117.292,80.538c-46.335,0.03-84.81-26.767-114.905-80.416
		c-21.223-37.917-34.562-80.452-39.507-127.562l-34.046-45.771l34.971-47.136c5.405-44.489,18.699-84.402,38.886-120.41
		c30.54-53.653,69.965-80.509,117.786-80.531c46.832-0.028,84.809,26.784,114.418,80.418
		c19.243,34.663,32.084,73.914,37.527,117.743L1780.006,2663.005z M1607.469,2663.742l36.451-48.441
		c-1.493-17.65-3.471-35.322-6.433-52.983c-9.399-56.261-24.699-84.389-45.401-84.377c-33.034,0.012-52.731,45.827-59.583,136.771
		l35.523,48.405l-35.969,51.055c1.988,24.204,5.948,49.054,11.381,73.266c11.376,50.365,27.65,75.23,48.851,75.215
		c33.024-0.02,50.755-49.747,53.651-149.2l-0.983,0.65L1607.469,2663.742z"/>
	<path fill="#FFFFFF" d="M2121.634,2663.475l27.099-36.006l-0.042-79.819c-0.029-49.071-14.831-73.924-43.915-74.562l-0.529-52.344
		l127.197-1.378l0.517,57.577l-2.95,0.007c-21.202,0.012-32.033,15.72-32.021,47.776l0.06,99.446l28.123,38.594l-28.087,39.923
		l0.041,69.35c0.021,40.565-12.782,74.594-38.894,102.094c-24.142,26.171-51.742,39.29-82.803,39.303
		c-37.467,0.016-68.541-16.329-93.203-49.032c-24.669-33.355-37.008-74.557-37.044-124.291l-0.011-28.785l-35.516-47.74
		l35.467-47.135l-0.046-85.706c-0.004-16.35-2.976-30.753-8.9-41.869c-6.906-13.73-16.278-18.957-28.595-16.338l-0.03-49.724
		l153.81-1.382l0.036,51.023c-21.209,0.661-35.001,23.57-34.977,52.365l0.045,88.974l36.013,49.052l-35.958,51.054l0.018,43.186
		c0.035,58.877,21.249,88.306,63.636,88.287c18.742-0.016,33.53-8.522,43.872-25.537c9.85-15.707,14.773-36.003,14.761-61.511
		l-0.036-58.231L2121.634,2663.475z"/>
	<path fill="#FFFFFF" d="M2677.701,2614.104l35.515,48.403l-35.468,50.405l0.102,189.082l-36.493,0.017l-166.272-253.778
		l0.076,147.873c0.022,41.87,13.345,62.148,39.969,60.816l0.021,47.112c-4.932,2.63-27.609,3.937-67.545,3.302
		c-39.922,0.019-61.617,0.038-64.081-0.606l-0.024-48.435c20.205-2.612,34.496-24.871,34.477-53.006l-0.048-92.242l-0.982,0.656
		l-37.489-50.361l37.435-50.403l0.985,1.306l-0.028-51.035c-0.015-24.208-4.453-43.179-13.343-58.217
		c-9.864-16.357-23.672-24.853-41.42-24.19l-0.032-58.229l84.294-0.043l177.625,270.77l-0.076-154.411
		c-0.024-42.521-12.361-63.455-37.008-63.44l-0.029-52.343c3.447-0.656,24.161-1.315,62.122-1.337
		c37.952-0.677,59.159-0.687,63.099-0.036l0.035,54.961c-20.217,0.663-35.486,20.297-35.471,47.117L2677.701,2614.104z"/>
	<path fill="#FFFFFF" d="M3031.15,2615.224l34.524,47.092l-34.483,48.435l0.043,87.028c0.017,15.039,2.971,28.781,8.406,40.548
		c6.4,13.083,15.292,18.97,26.63,18.301l0.521,45.812c-5.435,1.967-11.339,3.273-18.741,3.273l-55.221,0.036l-66.546,0.036
		c-3.944,0-7.895,0-12.333-0.65l-0.023-44.492c19.236-4.6,32.537-24.882,32.521-50.391l-0.053-97.487l-38.486-49.703l38.423-49.102
		l-0.038-83.742c-0.012-26.832-8.906-39.902-26.143-39.897c-18.734,0.009-33.017,17.686-43.361,52.36
		c-7.377,24.876-11.314,52.35-12.285,82.447l-32.542-23.539l-0.101-181.227l312.554-0.825l0.091,174.692l-35.968,26.843
		c-2.981-41.22-5.458-67.386-7.438-77.204c-6.921-35.979-18.751-54.286-35.022-54.275c-17.267,0.007-35,20.295-34.984,43.191
		L3031.15,2615.224z"/>
	<path fill="#FFFFFF" d="M3266.805,2662.868l35.457-47.134l-0.047-81.781c-0.005-35.99-8.896-53.642-26.149-53.637
		c-3.442,0-6.894,0.653-10.838,2.619l-0.034-61.497c11.827-0.006,73.443-1.348,184.861-4.026
		c35.008-0.02,64.104,15.018,86.299,45.755c22.209,30.741,33.56,69.337,33.588,115.792c0.013,17.666-2.45,33.363-7.365,47.76
		l17.273,34.017l-59.652,20.322c-5.906,3.264-12.314,5.226-18.717,7.2c15.292,10.451,28.109,27.459,38.471,50.357l16.801,47.751
		c9.371,22.234,17.76,33.356,25.639,33.356c10.845-0.008,21.686-13.089,32.514-39.935c7.405,17.67,10.879,34.021,10.879,49.071
		c0.022,22.246-6.876,40.565-20.678,55.622c-13.303,15.058-28.576,22.259-45.838,22.267c-30.564,0.028-53.744-16.96-69.533-51.651
		c-5.441-20.284-14.318-49.707-26.172-88.953c-13.332-39.259-28.625-58.879-46.39-58.867c-18.224,0.006-27.11,7.864-27.092,24.214
		l0.034,58.892c0.007,31.409,15.793,60.188,38.965,60.824l0.037,51.036c-6.402,1.963-60.637,1.991-162.188,0.744l-0.027-44.484
		c21.201-3.298,35.484-27.506,35.46-55.647l-0.038-92.255L3266.805,2662.868z M3477.715,2507.689
		c-7.395-13.736-17.758-20.278-32.046-20.271c-35.495,0.021-53.235,20.316-53.216,60.226l0.047,104.689
		c6.412,1.952,12.815,3.256,18.737,3.256c45.847-0.022,76.391-39.963,76.366-100.8
		C3487.595,2535.161,3484.123,2519.457,3477.715,2507.689z"/>
	<path fill="#FFFFFF" d="M3994.407,2624.527l27.636,37.282l-61.117,44.521l0.557,105.989c0.012,26.177,21.707,43.823,41.926,41.85
		l0.031,49.077l-176.509-0.56l-0.016-47.115h1.966c25.641-0.013,38.445-14.402,38.439-42.554l-0.057-106.64l-63.623-43.8
		l28.08-37.966l-58.726-128.204c-8.396-14.39-17.278-21.578-26.146-21.578c-1.975,0-3.945,0.656-5.919,1.307l-0.03-53.647
		l166.625-0.739l-0.45,52.34c-5.432-1.96-9.876-2.614-13.814-2.607c-9.363,0-14.286,4.589-14.286,13.753
		c0.004,8.506,8.404,30.088,25.182,64.756l32.07,66.055c5.92-9.812,16.247-28.788,31.037-55.623
		c15.75-29.45,23.641-51.051,23.625-64.791c-0.016-15.048-8.391-22.89-24.654-22.878c-2.962,0-5.924,0-9.377,0.656l-0.531-50.383
		l146.923-2.69l-0.462,55.61c-11.344,0.666-23.664,7.213-36.965,20.956c-10.848,11.126-20.201,24.221-27.586,39.271
		L3994.407,2624.527z"/>
</g>
<g id="lasso" display="none">
	<path display="inline" fill="#A86E1A" d="M502.035,3170.75c0-0.001,1.267,0.815,3.768,2.369c1.263,0.768,2.838,1.725,4.718,2.866
		c1.896,1.118,4.101,2.418,6.608,3.896c10.063,5.858,25.157,14.301,45.244,24.54c40.13,20.52,100.288,48.3,179.341,77.124
		c79.03,28.771,176.978,58.531,291.506,83.11c57.247,12.311,118.616,23.299,183.662,32.402c8.135,1.106,16.322,2.221,24.561,3.342
		c4.123,0.538,8.245,1.175,12.403,1.636c4.156,0.484,8.324,0.97,12.505,1.457c8.361,0.978,16.773,1.961,25.235,2.95
		c4.232,0.484,8.47,1.026,12.733,1.466c4.265,0.417,8.542,0.836,12.832,1.256c8.58,0.84,17.208,1.685,25.886,2.534
		c4.339,0.425,8.689,0.85,13.053,1.276c4.371,0.342,8.754,0.685,13.149,1.028c8.79,0.688,17.628,1.379,26.514,2.074
		c4.442,0.348,8.897,0.696,13.363,1.046c4.432,0.34,8.962,0.612,13.457,0.923c36.026,2.427,72.747,4.563,110.242,6.279
		c37.479,1.73,75.672,3.077,114.521,3.717c19.424,0.359,39.011,0.475,58.75,0.463c19.74,0.002,39.631-0.268,59.659-0.774
		c40.054-1,80.684-2.999,121.627-6.956c20.468-1.982,41.006-4.499,61.535-7.721c20.515-3.266,41.022-7.278,61.254-12.567
		c10.099-2.686,20.132-5.664,29.989-9.125c9.848-3.468,19.558-7.358,28.836-12.003l3.471-1.754c1.155-0.589,2.273-1.232,3.413-1.846
		c2.294-1.208,4.477-2.566,6.705-3.869c4.365-2.719,8.611-5.6,12.617-8.737c7.937-6.319,14.979-13.659,19.837-22.139
		c2.434-4.226,4.325-8.716,5.491-13.396l0.437-1.755l0.334-1.778c0.26-1.18,0.356-2.388,0.533-3.583
		c0.075-0.601,0.099-1.207,0.153-1.811c0.047-0.77,0.105-0.961,0.108-1.716l0.098-4.094c0.065-1.416-0.011-2.615-0.047-3.869
		c-0.054-1.253-0.048-2.487-0.141-3.758c-0.266-2.553-0.36-5.135-0.819-7.662l-0.581-3.811l-0.811-3.766l-0.402-1.887l-0.525-1.855
		l-1.048-3.714c-3.111-9.821-7.882-19.15-13.872-27.763c-5.993-8.62-13.215-16.507-21.175-23.698
		c-7.964-7.197-16.654-13.716-25.732-19.757c-9.118-5.999-18.696-11.401-28.453-16.548c-19.66-10.055-40.281-18.614-61.378-26.181
		c-21.107-7.563-42.713-14.12-64.606-19.99c-2.738-0.729-5.463-1.513-8.216-2.2l-8.257-2.086l-8.266-2.088
		c-2.759-0.688-5.536-1.313-8.305-1.974c-5.545-1.283-11.086-2.65-16.65-3.871c-5.564-1.227-11.121-2.402-16.728-3.51
		c-22.394-4.439-45.062-8.071-67.892-11.101c-22.833-3.021-45.821-5.536-68.931-7.53c-46.217-4.02-92.887-6.249-139.806-6.773
		c-23.46-0.258-46.983-0.03-70.541,0.668c-23.557,0.705-47.15,1.936-70.729,3.85c-23.576,1.915-47.149,4.457-70.581,8.098
		c-11.713,1.823-23.393,3.9-34.99,6.363c-11.598,2.451-23.117,5.291-34.446,8.71c-11.319,3.429-22.475,7.425-33.083,12.46
		c-5.301,2.516-10.429,5.347-15.283,8.525c-4.822,3.209-9.368,6.805-13.192,10.968c-3.793,4.163-6.915,8.89-8.502,14.085
		c-1.638,5.175-1.729,10.715-0.529,16.09c0.616,2.688,1.548,5.327,2.67,7.906l0.883,1.922l1.003,1.898l1.052,1.986
		c0.351,0.661,0.694,1.343,1.074,1.929l2.22,3.657c0.759,1.215,1.627,2.399,2.434,3.601c0.416,0.596,0.81,1.206,1.243,1.789
		l1.332,1.729c0.906,1.138,1.729,2.339,2.702,3.426c3.686,4.512,7.835,8.642,12.125,12.614c4.354,3.911,8.959,7.558,13.735,10.984
		c9.603,6.791,19.915,12.632,30.586,17.76c21.42,10.157,44.164,17.605,67.282,23.498c23.15,5.851,46.724,10.159,70.438,13.516
		c23.721,3.348,47.595,5.752,71.522,7.521c47.869,3.46,95.931,4.456,143.93,4.073c24.002-0.201,47.994-0.738,71.963-1.57
		c11.984-0.415,23.963-0.885,35.935-1.432l17.953-0.858l4.486-0.226l2.161-0.121l2.245-0.146l8.979-0.578l8.977-0.57
		c2.996-0.183,5.987-0.373,8.94-0.653l17.774-1.529c5.916-0.465,11.856-1.106,17.791-1.726c5.934-0.616,11.867-1.232,17.797-1.848
		c11.853-1.396,23.699-2.791,35.536-4.186c11.828-1.541,23.647-3.082,35.458-4.621c47.23-6.35,94.244-13.523,141.055-20.834
		c93.614-14.692,186.377-30.302,278.08-45.506c91.692-15.269,182.347-30.059,271.625-43.997
		c44.639-6.974,88.938-13.718,132.856-20.155c21.971-3.146,43.838-6.278,65.594-9.395c10.885-1.514,21.741-3.023,32.57-4.53
		c5.414-0.749,10.822-1.499,16.223-2.246c5.405-0.718,10.803-1.434,16.193-2.149c21.564-2.852,43.002-5.754,64.35-8.409
		c10.671-1.354,21.311-2.704,31.919-4.05c10.616-1.286,21.201-2.568,31.755-3.846c10.555-1.261,21.078-2.517,31.568-3.769
		c10.5-1.182,20.966-2.359,31.398-3.533c10.435-1.164,20.835-2.325,31.201-3.481c10.373-1.09,20.713-2.176,31.018-3.259
		c10.308-1.056,20.567-2.222,30.814-3.174c10.244-0.983,20.452-1.962,30.623-2.938c20.334-2.026,40.557-3.716,60.616-5.474
		c20.053-1.832,39.989-3.276,59.755-4.836c4.941-0.385,9.873-0.769,14.795-1.151l3.69-0.284l3.779-0.236
		c2.455-0.15,4.908-0.302,7.358-0.452c9.8-0.601,19.56-1.2,29.278-1.797c9.724-0.578,19.387-1.229,29.043-1.741
		c9.687-0.391,19.331-0.78,28.934-1.167c9.601-0.387,19.159-0.771,28.675-1.155c2.378-0.091,4.754-0.182,7.127-0.272
		c2.371-0.047,4.74-0.093,7.105-0.14c4.732-0.09,9.453-0.179,14.164-0.269c9.419-0.178,18.795-0.354,28.125-0.53
		c4.665-0.089,9.318-0.176,13.961-0.264c4.644,0.004,9.275,0.007,13.896,0.011c9.24,0.013,18.436,0.025,27.584,0.038
		c4.574,0.006,9.137,0.013,13.688,0.019c4.551-0.001,9.09-0.002,13.616,0.13c18.104,0.397,36.021,0.792,53.742,1.182
		c17.709,0.726,35.225,1.443,52.54,2.152c8.659,0.291,17.255,0.889,25.804,1.396c8.547,0.52,17.043,1.036,25.488,1.549
		c4.223,0.257,8.432,0.513,12.629,0.768c4.198,0.221,8.371,0.635,12.538,0.939c8.33,0.663,16.608,1.32,24.833,1.975
		c65.791,5.332,127.991,12.682,186.205,21.101c58.229,8.357,112.404,18.262,162.243,28.53
		c49.839,10.285,95.333,21.057,136.157,31.775c40.836,10.676,77.001,21.305,108.254,31.188
		c31.256,9.881,57.623,18.951,78.858,26.693c21.239,7.734,37.338,14.162,48.146,18.592c10.799,4.449,16.304,6.943,16.304,6.943
		l-0.725,1.648c0,0-5.526-2.34-16.409-6.508c-10.883-4.161-27.088-10.214-48.455-17.443c-21.362-7.242-47.842-15.789-79.221-24.997
		c-31.385-9.177-67.615-19.216-108.527-29.105c-40.904-9.911-86.41-19.974-136.229-29.469c-6.231-1.17-12.524-2.352-18.882-3.545
		c-3.178-0.596-6.372-1.194-9.582-1.796c-3.219-0.552-6.453-1.105-9.703-1.663c-6.5-1.114-13.061-2.239-19.685-3.375
		c-3.312-0.568-6.638-1.139-9.979-1.712c-1.671-0.286-3.346-0.573-5.024-0.861c-1.683-0.262-3.37-0.523-5.061-0.787
		c-13.522-2.108-27.288-4.256-41.292-6.44c-14.037-1.958-28.311-3.95-42.818-5.974c-58.081-7.697-120.114-14.069-185.645-18.807
		c-8.193-0.569-16.439-1.143-24.736-1.719c-4.15-0.264-8.307-0.635-12.488-0.812c-4.18-0.212-8.372-0.425-12.577-0.639
		c-8.409-0.427-16.87-0.856-25.382-1.289c-8.512-0.421-17.069-0.932-25.691-1.134c-17.235-0.534-34.671-1.075-52.299-1.622
		c-17.635-0.221-35.463-0.444-53.479-0.671c-4.504-0.096-9.02-0.059-13.547-0.021c-4.527,0.03-9.066,0.06-13.617,0.089
		c-9.101,0.061-18.248,0.12-27.439,0.18c-4.597,0.033-9.203,0.065-13.822,0.098c-4.617,0.125-9.246,0.249-13.885,0.373
		c-9.279,0.249-18.604,0.499-27.971,0.75c-4.684,0.125-9.378,0.251-14.083,0.377c-2.353,0.062-4.708,0.123-7.066,0.185
		c-2.354,0.105-4.71,0.212-7.069,0.317c-9.434,0.441-18.911,0.885-28.431,1.331c-9.519,0.444-19.08,0.892-28.683,1.341
		c-9.621,0.573-19.303,1.289-29.015,1.931c-9.715,0.66-19.471,1.323-29.267,1.988c-2.449,0.166-4.9,0.333-7.354,0.499l-3.587,0.248
		l-3.678,0.308c-4.904,0.405-9.82,0.812-14.745,1.22c-19.699,1.652-39.565,3.188-59.556,5.113
		c-19.996,1.852-40.149,3.635-60.423,5.755c-10.14,1.022-20.315,2.049-30.528,3.078c-10.213,1.011-20.448,2.182-30.727,3.27
		c-164.428,17.704-337.307,41.362-515.787,68.502c-89.248,13.543-179.89,28.012-271.656,42.747
		c-45.891,7.363-92.061,14.77-138.463,22.215c-46.413,7.414-93.091,14.744-140.011,21.816
		c-46.922,7.067-94.088,13.885-141.55,19.856c-11.876,1.429-23.761,2.857-35.654,4.287c-11.918,1.283-23.844,2.567-35.777,3.853
		c-5.979,0.561-11.961,1.122-17.945,1.684c-5.982,0.562-11.958,1.148-17.993,1.563l-18.065,1.371
		c-3.019,0.255-6.012,0.415-9.003,0.567l-8.982,0.481l-8.985,0.474l-2.246,0.118l-2.333,0.102l-4.505,0.17l-18.026,0.634
		c-12.021,0.397-24.052,0.717-36.089,0.982c-24.074,0.532-48.177,0.768-72.295,0.666c-48.232-0.223-96.551-1.832-144.731-5.925
		c-24.085-2.075-48.132-4.794-72.054-8.467c-23.918-3.679-47.717-8.342-71.161-14.547c-23.423-6.218-46.541-14.021-68.472-24.683
		c-10.93-5.385-21.539-11.522-31.474-18.697c-4.945-3.619-9.725-7.479-14.258-11.635c-4.476-4.216-8.794-8.623-12.671-13.432
		c-1.018-1.158-1.891-2.44-2.842-3.655l-1.398-1.846c-0.456-0.623-0.873-1.276-1.311-1.912c-0.856-1.292-1.752-2.536-2.572-3.868
		l-2.412-4.051c-0.424-0.68-0.75-1.341-1.097-2.006l-1.038-1.994l-1.079-2.084l-0.979-2.169c-1.249-2.922-2.3-5.96-2.999-9.122
		c-1.381-6.315-1.239-13.148,0.803-19.397c1.982-6.284,5.702-11.747,9.977-16.369c4.311-4.631,9.249-8.475,14.392-11.859
		c5.169-3.349,10.553-6.276,16.062-8.856c11.024-5.161,22.449-9.176,33.985-12.606c23.102-6.81,46.66-11.396,70.26-15.007
		c23.614-3.57,47.306-6.129,70.989-8.021c47.375-3.731,94.699-5.018,141.756-4.665c23.53,0.166,46.998,0.757,70.383,1.773
		c23.387,0.992,46.695,2.382,69.9,4.237c46.405,3.719,92.45,9,137.764,17.325c5.655,1.044,11.321,2.169,16.949,3.336
		c5.63,1.161,11.209,2.464,16.81,3.687c2.795,0.63,5.597,1.223,8.383,1.882l8.351,1.999l8.343,1.997
		c2.782,0.658,5.54,1.413,8.309,2.114c22.139,5.66,44.056,11.961,65.576,19.307c21.511,7.359,42.64,15.755,62.998,25.79
		c10.119,5.146,20.095,10.578,29.691,16.69c9.561,6.162,18.803,12.877,27.407,20.428c8.596,7.545,16.553,15.953,23.303,25.362
		c6.743,9.396,12.277,19.796,15.958,30.872l1.254,4.189l0.62,2.097l0.493,2.129l0.977,4.259c0.264,1.43,0.484,2.867,0.726,4.302
		c0.549,2.862,0.718,5.761,1.048,8.644c0.126,1.453,0.154,2.957,0.23,4.434c0.062,1.477,0.151,3.007,0.107,4.322l-0.038,4.095
		c0.012,0.611-0.067,1.778-0.105,2.371c-0.055,0.756-0.08,1.514-0.163,2.269c-0.19,1.506-0.312,3.021-0.608,4.513l-0.397,2.243
		l-0.517,2.219c-1.399,5.914-3.703,11.577-6.622,16.8c-5.847,10.496-14.039,19.12-22.879,26.349
		c-4.459,3.586-9.11,6.834-13.858,9.863c-2.405,1.447-4.783,2.954-7.236,4.283c-1.222,0.676-2.43,1.386-3.663,2.031l-3.703,1.924
		c-9.892,5.082-20.073,9.283-30.332,13.023c-10.266,3.723-20.63,6.944-31.035,9.793c-41.672,11.234-83.665,17.318-125.08,21.64
		c-41.446,4.239-82.431,6.349-122.779,7.415c-20.176,0.512-40.197,0.783-60.053,0.782c-19.855,0.034-39.547-0.181-59.063-0.573
		c-78.074-1.486-153.371-5.67-225.526-10.818c-4.514-0.332-8.975-0.619-13.5-0.986c-4.488-0.379-8.965-0.758-13.429-1.135
		c-8.929-0.756-17.81-1.506-26.642-2.254c-4.416-0.373-8.82-0.746-13.212-1.117c-4.384-0.456-8.756-0.911-13.115-1.365
		c-8.719-0.909-17.389-1.812-26.008-2.712c-4.31-0.449-8.607-0.897-12.892-1.345c-4.282-0.469-8.541-1.041-12.792-1.554
		c-8.5-1.058-16.95-2.11-25.348-3.155c-4.199-0.524-8.385-1.047-12.558-1.568c-4.176-0.498-8.316-1.172-12.456-1.746
		c-8.273-1.195-16.495-2.383-24.664-3.562c-65.32-9.65-126.89-21.37-184.284-34.375c-114.818-26.014-212.79-57.373-291.579-87.753
		c-78.865-30.311-138.585-59.555-178.348-81.065c-39.781-21.555-59.65-35.373-59.65-35.373L502.035,3170.75z"/>
</g>
<path id="lasso_3_" fill="#FFFFFF" d="M502.338,3170.294c0,0,1.273,0.785,3.78,2.331c2.527,1.525,6.322,3.767,11.371,6.656
	c10.101,5.771,25.245,14.093,45.395,24.167c40.242,20.217,100.533,47.553,179.641,75.925
	c79.104,28.282,177.043,57.556,291.482,81.698c57.202,12.099,118.509,22.864,183.471,31.802
	c64.963,8.9,133.608,15.866,205.38,20.498c9.014,0.57,18.074,1.142,27.181,1.719c9.109,0.586,18.264,1.167,27.422,1.616
	c9.17,0.485,18.384,0.974,27.644,1.464c4.63,0.242,9.272,0.483,13.924,0.726c4.658,0.198,9.327,0.395,14.008,0.591
	c9.36,0.401,18.765,0.807,28.212,1.212c9.446,0.441,18.938,0.646,28.471,0.983c9.533,0.28,19.108,0.673,28.725,0.864
	c9.615,0.188,19.273,0.377,28.971,0.568c38.785,0.509,78.229,0.785,118.192-0.347c39.96-1.019,80.477-2.992,121.268-6.847
	c20.418-1.801,40.82-4.492,61.272-7.504c20.372-3.311,40.765-7.154,60.835-12.305c4.97-1.396,9.947-2.796,14.931-4.197
	c4.954-1.467,9.806-3.171,14.731-4.745c4.878-1.663,9.604-3.62,14.433-5.414c2.371-0.966,4.664-2.06,7.006-3.082l3.498-1.557
	c1.174-0.511,2.341-1.03,3.442-1.642c4.452-2.368,9.074-4.553,13.231-7.286l3.205-1.951c0.53-0.328,1.082-0.638,1.597-0.983
	l1.496-1.08l6.011-4.311c7.625-6.078,14.295-13.025,18.881-20.879c0.682-0.939,1.065-1.99,1.572-2.994l1.479-3.033
	c0.399-1.04,0.723-2.104,1.101-3.15c0.335-1.06,0.832-2.08,0.994-3.182c0.45-2.172,1.079-4.315,1.193-6.559l0.188-1.667
	c0.069-0.815,0.146-0.718,0.145-1.516l0.115-4.095c0.072-1.446-0.002-2.537-0.03-3.726c-0.046-1.187-0.029-2.338-0.114-3.554
	c-0.245-2.453-0.32-4.938-0.752-7.363l-0.537-3.659l-0.76-3.618l-0.375-1.812l-0.498-1.781l-0.987-3.57
	c-2.942-9.437-7.481-18.439-13.244-26.813c-5.765-8.378-12.764-16.106-20.531-23.188c-7.771-7.087-16.295-13.546-25.226-19.55
	c-8.972-5.965-18.431-11.354-28.077-16.502c-19.449-10.059-39.915-18.668-60.888-26.297c-20.981-7.627-42.493-14.262-64.311-20.194
	c-5.439-1.541-10.927-2.938-16.419-4.34c-5.486-1.424-10.985-2.827-16.521-4.115c-5.529-1.303-11.057-2.689-16.603-3.927
	c-5.543-1.244-11.067-2.435-16.659-3.562c-44.651-9.02-90.403-14.834-136.536-19.026c-23.079-2.052-46.274-3.669-69.56-4.843
	c-23.288-1.144-46.662-1.862-70.1-2.161c-46.871-0.48-94.023,0.646-141.122,4.475c-23.542,1.923-47.08,4.46-70.456,8.122
	c-23.354,3.683-46.636,8.289-69.185,15.099c-11.252,3.427-22.326,7.418-32.808,12.416c-10.398,5.023-20.443,11.082-27.868,19.127
	c-3.643,4.025-6.582,8.529-8.046,13.394c-1.512,4.849-1.583,9.994-0.435,15.084c0.59,2.544,1.489,5.062,2.574,7.536l0.854,1.847
	l0.982,1.845c0.709,1.284,1.396,2.727,2.124,3.886c2.722,4.725,6.159,9.467,9.75,13.855c3.628,4.421,7.728,8.468,11.96,12.363
	c4.299,3.839,8.853,7.417,13.577,10.784c9.503,6.674,19.725,12.425,30.318,17.473c21.265,10.003,43.895,17.343,66.921,23.136
	c23.061,5.74,46.565,9.94,70.218,13.198c23.661,3.248,47.481,5.558,71.36,7.231c47.773,3.268,95.757,4.078,143.684,3.509
	c23.967-0.293,47.925-0.922,71.862-1.845c11.968-0.462,23.932-0.978,35.888-1.569l17.93-0.927l4.481-0.242l2.108-0.129l2.245-0.153
	l8.977-0.61c5.961-0.435,12.02-0.716,17.896-1.278l17.686-1.577c5.879-0.48,11.809-1.139,17.729-1.774l17.753-1.897
	c11.829-1.431,23.65-2.858,35.463-4.288c11.807-1.574,23.606-3.149,35.397-4.724c47.159-6.463,94.127-13.747,140.903-21.131
	c93.545-14.854,186.277-30.598,277.958-45.953c91.67-15.431,182.327-30.319,271.615-44.377
	c178.55-28.243,351.862-51.96,516.903-68.919c20.615-2.23,41.131-4.123,61.492-6.039c20.354-1.998,40.595-3.658,60.676-5.39
	c20.072-1.803,40.029-3.22,59.814-4.751c4.945-0.377,9.883-0.754,14.811-1.13l3.691-0.276l3.84-0.234l7.358-0.437
	c9.802-0.582,19.563-1.162,29.283-1.738c9.726-0.56,19.383-1.192,29.05-1.686c9.713-0.372,19.383-0.743,29.01-1.113
	c9.626-0.368,19.211-0.735,28.75-1.102c2.384-0.086,4.766-0.173,7.145-0.259c2.375-0.041,4.747-0.084,7.119-0.126
	c4.738-0.078,9.468-0.157,14.187-0.235c9.435-0.156,18.827-0.31,28.173-0.464c4.671-0.077,9.332-0.153,13.982-0.23
	c4.652,0.016,9.291,0.029,13.92,0.044c9.254,0.034,18.465,0.069,27.629,0.104c4.58,0.019,9.15,0.034,13.709,0.054
	c4.559,0.009,9.104,0.019,13.637,0.161c145.108,2.471,277.754,14.971,394.229,32.392c58.27,8.575,112.465,18.734,162.307,29.253
	c49.846,10.525,95.336,21.515,136.135,32.479c81.641,21.833,144.508,43.33,186.92,59.029c21.198,7.888,37.266,14.43,48.048,18.941
	c10.775,4.534,16.272,7.077,16.272,7.077l-1.165,2.648c0,0-5.534-2.292-16.442-6.374c-10.906-4.079-27.143-10.018-48.548-17.094
	c-21.399-7.089-47.913-15.479-79.329-24.48c-31.426-8.962-67.675-18.821-108.611-28.474c-40.928-9.665-86.437-19.51-136.25-28.767
	c-24.895-4.693-50.902-9.021-77.897-13.36c-13.517-2.051-27.276-4.142-41.271-6.267c-14.028-1.902-28.294-3.836-42.791-5.803
	c-58.04-7.477-120.023-13.552-185.475-18.108c-65.455-4.453-134.412-7.221-206.369-7.253c-4.497-0.084-9.007-0.037-13.525,0.012
	c-4.521,0.041-9.053,0.081-13.597,0.122c-9.087,0.082-18.219,0.163-27.396,0.247c-4.589,0.042-9.188,0.086-13.799,0.13
	c-4.609,0.136-9.23,0.271-13.863,0.405c-9.262,0.271-18.57,0.544-27.922,0.817c-4.675,0.136-9.361,0.272-14.059,0.409
	c-2.35,0.066-4.701,0.132-7.055,0.198c-2.348,0.11-4.699,0.22-7.052,0.331c-9.408,0.459-18.86,0.921-28.356,1.384
	c-9.493,0.464-19.029,0.929-28.605,1.396c-9.609,0.59-19.298,1.327-29.005,1.988c-9.714,0.679-19.468,1.36-29.263,2.045
	l-7.354,0.516l-3.528,0.249l-3.675,0.316c-4.9,0.411-9.811,0.826-14.729,1.24c-19.68,1.68-39.524,3.242-59.494,5.196
	c-19.977,1.88-40.11,3.691-60.364,5.84c-20.262,2.067-40.668,4.136-61.199,6.421c-164.283,17.877-337.06,41.521-515.523,68.403
	c-89.238,13.422-179.875,27.794-271.664,42.367c-91.792,14.552-184.685,29.583-278.592,43.583
	c-46.956,6.991-94.167,13.702-141.7,19.559c-11.897,1.394-23.801,2.788-35.714,4.185c-11.942,1.25-23.892,2.501-35.85,3.753
	l-17.989,1.633c-5.997,0.547-11.983,1.115-18.055,1.515l-18.154,1.322c-6.069,0.478-11.999,0.655-18.007,0.996l-8.986,0.443
	l-2.248,0.109l-2.386,0.096l-4.51,0.152l-18.048,0.565c-12.037,0.353-24.083,0.627-36.136,0.847
	c-24.105,0.441-48.242,0.585-72.395,0.392c-48.304-0.407-96.701-2.202-144.975-6.487c-24.133-2.168-48.233-4.98-72.216-8.754
	c-23.979-3.774-47.848-8.546-71.381-14.857c-23.515-6.314-46.747-14.226-68.834-25.04c-11.009-5.46-21.708-11.689-31.747-18.978
	c-4.995-3.679-9.831-7.603-14.418-11.831c-4.532-4.289-8.904-8.78-12.84-13.678c-3.933-4.941-7.523-9.962-10.722-15.674
	c-0.834-1.398-1.417-2.682-2.139-4.026l-1.102-2.139l-1.008-2.243c-1.288-3.025-2.379-6.185-3.103-9.49
	c-1.44-6.601-1.288-13.826,0.873-20.404c2.098-6.617,6-12.305,10.417-17.07c8.997-9.509,19.979-15.825,31.052-21.095
	c11.15-5.201,22.656-9.222,34.259-12.654c23.229-6.812,46.852-11.396,70.508-14.99c23.67-3.549,47.398-6.113,71.114-8
	c47.439-3.709,94.803-5.032,141.903-4.712c23.551,0.135,47.041,0.695,70.449,1.682c23.41,0.95,46.744,2.287,69.979,4.097
	c46.468,3.606,92.582,8.762,138.05,16.923c5.67,1.025,11.369,2.135,17.017,3.283c5.65,1.144,11.241,2.427,16.857,3.631
	c5.616,1.188,11.204,2.496,16.783,3.825c5.583,1.307,11.164,2.609,16.707,4.058c22.215,5.596,44.225,11.817,65.872,19.097
	c21.636,7.296,42.919,15.641,63.491,25.669c10.228,5.146,20.327,10.583,30.068,16.73c9.707,6.198,19.117,12.97,27.918,20.627
	c8.791,7.651,16.972,16.217,23.955,25.863c6.975,9.632,12.741,20.358,16.601,31.813l1.316,4.336l0.651,2.169l0.519,2.202
	l1.029,4.409c0.283,1.478,0.515,2.965,0.771,4.449c0.577,2.964,0.771,5.96,1.119,8.942c0.14,1.508,0.176,3.095,0.259,4.637
	c0.069,1.543,0.166,3.183,0.127,4.466l-0.019,4.095c0.024,0.568-0.086,2.021-0.14,2.563l-0.206,2.408
	c-0.156,3.225-0.902,6.375-1.541,9.54c-0.258,1.603-0.861,3.1-1.323,4.641c-0.504,1.526-0.974,3.072-1.528,4.575l-1.973,4.358
	c-0.683,1.438-1.274,2.942-2.133,4.254c-6.168,11.088-14.685,20.109-23.781,27.665l-7.037,5.289l-1.764,1.315
	c-0.597,0.417-1.213,0.787-1.819,1.184l-3.654,2.329c-4.821,3.254-9.892,5.791-14.885,8.54c-1.243,0.708-2.517,1.307-3.794,1.895
	l-3.824,1.787c-2.554,1.172-5.088,2.422-7.656,3.521c-5.176,2.042-10.312,4.257-15.511,6.134
	c-5.218,1.778-10.407,3.692-15.636,5.342c-5.245,1.562-10.484,3.121-15.714,4.678c-21.01,5.703-42.083,9.968-63.061,13.672
	c-21.005,3.342-41.919,6.264-62.719,8.308c-5.2,0.535-10.39,1.069-15.572,1.604c-5.185,0.418-10.362,0.834-15.528,1.249
	c-5.168,0.406-10.328,0.812-15.477,1.217c-5.15,0.303-10.292,0.608-15.423,0.911s-10.255,0.604-15.368,0.906
	c-5.112,0.219-10.216,0.437-15.311,0.653c-10.187,0.396-20.341,0.914-30.449,1.048c-40.446,1.146-80.235,0.914-119.33,0.182
	c-9.771-0.23-19.501-0.46-29.188-0.688c-9.688-0.232-19.319-0.663-28.916-0.983c-9.592-0.375-19.152-0.62-28.65-1.1
	c-9.5-0.46-18.956-0.917-28.368-1.373c-4.706-0.23-9.401-0.461-14.084-0.692c-4.685-0.276-9.358-0.553-14.021-0.829
	c-9.324-0.561-18.604-1.117-27.838-1.673c-9.25-0.519-18.396-1.165-27.494-1.814c-9.103-0.639-18.159-1.276-27.169-1.908
	c-72.385-5.352-141.534-13.019-206.927-22.935c-65.403-9.816-127.034-21.759-184.474-34.975
	c-114.906-26.451-212.883-58.296-291.599-89.165c-78.808-30.763-138.394-60.453-178.044-82.266
	c-19.819-10.946-34.692-19.904-44.594-26.139c-4.94-3.135-8.655-5.563-11.131-7.216c-2.464-1.681-3.716-2.535-3.716-2.535
	L502.338,3170.294z"/>
<g id="DANSE_ET_MUSIQUE_DE_LAILLE_VECTORISE">
	<path fill="#FFFFFF" d="M2339.475,3381.011l31.2-0.001c6.712-0.018,12.356,0.671,16.916,2.027c4.562,1.355,8.565,3.312,12.008,5.87
		c5.198,3.847,9.281,8.719,12.249,14.646c2.953,5.911,4.444,12.387,4.444,19.421c0.009,7.046-1.476,13.525-4.427,19.442
		c-2.964,5.927-7.031,10.809-12.236,14.653c-3.435,2.561-7.44,4.533-11.995,5.884c-4.559,1.36-10.2,2.042-16.917,2.057
		l-31.199,0.009L2339.475,3381.011z M2371.307,3445.809c3.996-0.008,7.28-0.451,9.834-1.324c2.563-0.877,4.758-2.124,6.606-3.725
		c2.392-2.083,4.25-4.663,5.573-7.748c1.316-3.074,1.972-6.409,1.972-10.026c-0.004-3.591-0.662-6.937-1.976-10.015
		c-1.327-3.069-3.191-5.648-5.589-7.729c-1.846-1.601-4.048-2.845-6.605-3.715c-2.56-0.886-5.842-1.327-9.835-1.322h-10.806
		l0.027,45.604H2371.307z"/>
	<path fill="#FFFFFF" d="M2475.425,3380.946l36.286,83.98l-7.323,0.018l-10.932-25.325l-41.033,0.017l-10.914,25.332h-7.081
		l36.2-84.021H2475.425z M2455.411,3432.801l35.038-0.021l-17.539-40.782L2455.411,3432.801z"/>
	<path fill="#FFFFFF" d="M2537.348,3380.915h4.796l56.447,69.924l-0.041-69.96h7.187l0.049,84.004h-4.781l-56.446-69.93l0.038,69.96
		l-7.207,0.011L2537.348,3380.915z"/>
	<path fill="#FFFFFF" d="M2639.961,3447.706c1.213,1.526,2.568,2.977,4.098,4.372c1.52,1.404,3.221,2.623,5.096,3.663
		c1.878,1.037,3.939,1.879,6.179,2.512c2.238,0.646,4.685,0.953,7.324,0.953c2.079,0,4.151-0.353,6.242-1.08
		c2.079-0.725,3.935-1.764,5.577-3.126c1.637-1.361,2.955-3.022,3.951-4.979c1.012-1.957,1.495-4.14,1.495-6.532
		c0-3.201-0.681-5.84-2.046-7.921c-1.355-2.08-3.131-3.862-5.34-5.343c-2.202-1.475-4.682-2.787-7.44-3.883
		c-2.76-1.127-5.543-2.326-8.333-3.607c-1.206-0.558-2.41-1.144-3.611-1.742c-1.196-0.599-2.359-1.244-3.469-1.968
		c-3.133-1.924-5.814-4.219-8.053-6.91c-2.232-2.668-3.367-6.132-3.367-10.363c0-3.284,0.629-6.281,1.857-9.008
		c1.246-2.713,2.918-5.039,5.038-6.954c2.12-1.922,4.638-3.422,7.559-4.516c2.915-1.076,6.052-1.613,9.411-1.613
		c2.728,0,5.188,0.263,7.385,0.831c2.195,0.552,4.182,1.237,5.938,2.028c1.765,0.799,3.319,1.71,4.688,2.704
		c1.356,0.998,2.518,1.905,3.472,2.695l-4.312,5.163c-2.562-2.073-5.119-3.694-7.686-4.859c-2.562-1.153-5.636-1.724-9.24-1.724
		c-2.322,0-4.52,0.34-6.6,1.01c-2.078,0.686-3.879,1.69-5.399,3.018c-1.503,1.312-2.706,2.906-3.584,4.739
		c-0.89,1.849-1.331,3.876-1.331,6.122c0,2.155,0.464,4.011,1.398,5.58c0.919,1.555,2.13,2.954,3.654,4.188
		c1.523,1.249,3.279,2.338,5.281,3.294c2,0.958,4.082,1.928,6.24,2.886c2.08,0.881,4.18,1.778,6.301,2.69
		c2.115,0.93,4.134,1.976,6.062,3.176c1.756,1.126,3.399,2.347,4.923,3.666c1.521,1.316,2.848,2.798,4.024,4.439
		c1.159,1.641,2.074,3.46,2.758,5.453c0.679,1.992,1.014,4.238,1.014,6.712c0.014,3.359-0.619,6.431-1.897,9.181
		c-1.28,2.767-3.03,5.132-5.228,7.091c-2.194,1.961-4.775,3.494-7.721,4.621c-2.973,1.127-6.172,1.691-9.612,1.691
		c-5.84,0-11.032-1.195-15.604-3.598c-4.557-2.398-8.641-5.882-12.238-10.436L2639.961,3447.706z"/>
	<path fill="#FFFFFF" d="M2724.054,3387.657l0.021,27.361l29.998-0.021v6.849l-29.998,0.009l0.018,36.133l39.598-0.031v6.839
		l-46.795,0.03l-0.038-84.001l45.606-0.018v6.83L2724.054,3387.657z"/>
	<path fill="#FFFFFF" d="M2844.398,3387.601l0.021,27.348l29.999-0.016v6.844l-29.999,0.016l0.021,36.128l39.593-0.021v6.839
		l-46.793,0.015l-0.038-83.995l45.604-0.026v6.85L2844.398,3387.601z"/>
	<path fill="#FFFFFF" d="M2960.076,3380.695v6.846l-24,0.009l0.051,77.151h-7.21l-0.038-77.151l-24.002,0.02v-6.843
		L2960.076,3380.695z"/>
	<path fill="#FFFFFF" d="M3039.52,3380.644l28.453,40.432l27.94-40.461l15.604-0.005l0.053,84l-19.806,0.022l-0.032-44.884
		l-22.172,32.045h-3.607l-22.212-31.784l0.015,44.637l-19.78,0.016l-0.052-84.003L3039.52,3380.644z"/>
	<path fill="#FFFFFF" d="M3177.189,3465.778c-6.076,0-11.641-1.361-16.679-4.129c-5.038-2.767-9.043-6.456-12.001-11.103
		c-1.6-2.483-2.82-5.238-3.662-8.285c-0.84-3.021-1.27-6.781-1.27-11.271l-0.031-50.394l7.209-0.017l0.03,50.771
		c0,3.68,0.312,6.711,0.952,9.119c0.646,2.401,1.562,4.556,2.771,6.487c2.322,3.676,5.482,6.597,9.477,8.744
		c4.002,2.156,8.41,3.232,13.203,3.232c4.801-0.011,9.197-1.082,13.203-3.237c3.995-2.163,7.158-5.083,9.473-8.766
		c1.189-1.933,2.115-4.084,2.752-6.481c0.644-2.403,0.956-5.445,0.956-9.124l-0.03-50.755l7.209-0.01l0.031,50.394
		c0,4.484-0.423,8.242-1.264,11.278c-0.828,3.054-2.047,5.806-3.65,8.284c-2.959,4.655-6.963,8.348-12.001,11.111
		C3188.83,3464.396,3183.283,3465.778,3177.189,3465.778z"/>
	<path fill="#FFFFFF" d="M3243.908,3447.381c1.197,1.524,2.556,2.982,4.078,4.376c1.525,1.408,3.226,2.628,5.103,3.663
		c1.88,1.044,3.939,1.883,6.179,2.505c2.237,0.647,4.677,0.958,7.326,0.958c2.08,0,4.148-0.349,6.239-1.066
		c2.075-0.728,3.933-1.759,5.573-3.134c1.645-1.363,2.962-3.021,3.955-4.985c0.994-1.952,1.5-4.144,1.495-6.537
		c0-3.201-0.687-5.835-2.044-7.913c-1.357-2.083-3.135-3.861-5.342-5.351c-2.195-1.479-4.673-2.766-7.43-3.884
		c-2.771-1.117-5.557-2.325-8.35-3.605c-1.203-0.553-2.402-1.137-3.602-1.72c-1.203-0.607-2.363-1.271-3.479-1.985
		c-3.126-1.927-5.81-4.221-8.044-6.906c-2.241-2.674-3.372-6.132-3.372-10.367c0-3.284,0.625-6.289,1.866-9.008
		c1.231-2.71,2.906-5.034,5.031-6.962c2.12-1.911,4.641-3.416,7.551-4.496c2.928-1.087,6.062-1.626,9.422-1.626
		c2.721,0,5.184,0.278,7.385,0.84c2.19,0.55,4.178,1.229,5.936,2.019c1.768,0.805,3.318,1.706,4.688,2.706
		c1.351,0.999,2.521,1.906,3.472,2.699l-4.305,5.164c-2.576-2.079-5.131-3.697-7.693-4.852c-2.562-1.17-5.634-1.735-9.242-1.735
		c-2.324,0-4.519,0.336-6.598,1.015c-2.078,0.68-3.867,1.674-5.39,3.001c-1.526,1.334-2.714,2.911-3.599,4.75
		c-0.883,1.844-1.33,3.878-1.33,6.121c0,2.163,0.463,4.017,1.393,5.579c0.916,1.563,2.143,2.956,3.671,4.197
		c1.51,1.233,3.266,2.345,5.274,3.291c1.998,0.959,4.08,1.922,6.24,2.88c2.08,0.877,4.178,1.778,6.297,2.691
		c2.115,0.922,4.14,1.976,6.065,3.182c1.757,1.115,3.407,2.341,4.927,3.657c1.508,1.322,2.854,2.801,4.018,4.446
		c1.164,1.64,2.082,3.457,2.762,5.457c0.676,1.986,1.016,4.241,1.016,6.715c0,3.366-0.619,6.415-1.902,9.183
		c-1.274,2.755-3.027,5.115-5.225,7.084c-2.197,1.962-4.764,3.493-7.734,4.609c-2.969,1.123-6.146,1.69-9.588,1.69
		c-5.84,0-11.053-1.198-15.605-3.589c-4.566-2.405-8.65-5.876-12.248-10.442L3243.908,3447.381z"/>
	<path fill="#FFFFFF" d="M3320.779,3380.502l7.199-0.011l0.045,84.002l-7.209,0.004L3320.779,3380.502z"/>
	<path fill="#FFFFFF" d="M3358.361,3422.484c0-6.077,1.047-11.758,3.17-17.045c2.129-5.271,5.049-9.852,8.752-13.749
		c3.725-3.875,8.137-6.913,13.253-9.131c5.125-2.195,10.646-3.287,16.563-3.287c5.918-0.018,11.443,1.081,16.562,3.276
		c5.118,2.197,9.545,5.237,13.275,9.113c3.718,3.891,6.635,8.465,8.757,13.727c2.122,5.297,3.184,10.984,3.184,17.049
		c0.005,5.513-0.871,10.706-2.627,15.529c-1.758,4.854-4.197,9.198-7.303,13.037l12.358,13.427l-9.121,0.016l-7.928-8.765
		c-3.594,3.131-7.69,5.562-12.282,7.335c-4.609,1.757-9.554,2.646-14.824,2.646c-5.924,0-11.445-1.103-16.564-3.295
		c-5.122-2.194-9.535-5.228-13.257-9.113c-3.724-3.879-6.64-8.428-8.772-13.674
		C3359.427,3434.342,3358.377,3428.646,3358.361,3422.484z M3406,3422.455l21.139,23.147c2.393-3.124,4.251-6.658,5.575-10.623
		c1.325-3.955,1.965-8.132,1.965-12.542c0-4.959-0.842-9.63-2.515-14.026c-1.691-4.406-4.076-8.259-7.153-11.58
		c-3.072-3.318-6.741-5.941-10.979-7.852c-4.248-1.926-8.891-2.886-13.932-2.874c-5.043,0-9.68,0.964-13.916,2.879
		c-4.229,1.926-7.889,4.549-10.973,7.869c-3.074,3.319-5.461,7.182-7.129,11.589c-1.683,4.384-2.517,9.077-2.517,14.042
		c0,4.953,0.843,9.646,2.524,14.099c1.682,4.433,4.066,8.289,7.145,11.573c3.085,3.278,6.738,5.88,10.99,7.802
		c4.232,1.9,8.878,2.859,13.914,2.859c4.484-0.005,8.603-0.743,12.369-2.225c3.752-1.475,7.119-3.509,10.078-6.066l-21.504-23.738
		L3406,3422.455z"/>
	<path fill="#FFFFFF" d="M3505.26,3465.605c-6.09,0-11.64-1.368-16.687-4.131c-5.034-2.762-9.036-6.456-12.005-11.108
		c-1.596-2.477-2.811-5.218-3.655-8.265c-0.845-3.041-1.275-6.795-1.275-11.283l-0.021-50.395l7.2-0.011l0.028,50.759
		c0,3.69,0.311,6.722,0.957,9.12c0.645,2.4,1.578,4.564,2.76,6.485c2.328,3.684,5.494,6.599,9.486,8.757
		c4.003,2.161,8.41,3.227,13.204,3.227c4.806,0,9.202-1.087,13.204-3.245c3.988-2.153,7.157-5.08,9.482-8.756
		c1.191-1.924,2.109-4.085,2.74-6.488c0.646-2.403,0.957-5.445,0.957-9.12l-0.029-50.758l7.207-0.011l0.029,50.399
		c0,4.479-0.412,8.243-1.26,11.275c-0.838,3.05-2.054,5.801-3.651,8.29c-2.954,4.652-6.956,8.342-12.002,11.108
		C3516.902,3464.216,3511.334,3465.605,3505.26,3465.605z"/>
	<path fill="#FFFFFF" d="M3581.169,3387.206l0.021,27.359l29.999-0.027v6.849l-29.999,0.021l0.021,36.117l39.598-0.016v6.833
		l-46.792,0.022l-0.047-84.001l45.607-0.018v6.846L3581.169,3387.206z"/>
	<path fill="#FFFFFF" d="M3765.135,3422.268c0.012,7.04-1.477,13.521-4.438,19.437c-2.937,5.923-7.026,10.815-12.224,14.653
		c-3.429,2.557-7.436,4.518-11.986,5.876c-4.572,1.363-10.195,2.05-16.916,2.05l-25.209,0.025l-0.047-84.008l25.205-0.014
		c6.723,0,12.355,0.676,16.916,2.034c4.561,1.361,8.566,3.318,12.006,5.873c5.187,3.839,9.286,8.711,12.242,14.639
		C3763.649,3408.755,3765.135,3415.223,3765.135,3422.268z M3757.941,3422.268c0-5.675-1.162-10.956-3.486-15.839
		c-2.328-4.861-5.564-8.945-9.73-12.229c-3.043-2.325-6.578-4.083-10.625-5.271c-4.037-1.197-9.021-1.799-14.939-1.799l-17.643,0.01
		l0.037,70.319l17.648-0.005c5.91,0,10.896-0.609,14.938-1.808c4.03-1.211,7.577-2.97,10.614-5.282
		c4.15-3.283,7.393-7.373,9.705-12.258C3756.785,3433.233,3757.947,3427.95,3757.941,3422.268z"/>
	<path fill="#FFFFFF" d="M3802.676,3387.088l0.018,27.352l30-0.015v6.846l-30,0.021l0.014,36.115l39.602-0.019l0.017,6.828
		l-46.8,0.031l-0.053-84.002l45.608-0.017v6.841L3802.676,3387.088z"/>
	<path fill="#FFFFFF" d="M3933.715,3380.177l0.031,64.802l33.611-0.016v19.197l-54.592,0.025l-0.051-83.993L3933.715,3380.177z"/>
	<path fill="#FFFFFF" d="M4024.785,3380.132l36.277,83.98h-7.301l-10.953-25.319l-41.031,0.022l-10.91,25.323l-7.068,0.013
		l36.192-84.02H4024.785z M4004.78,3431.982l35.032-0.016l-17.541-40.795L4004.78,3431.982z"/>
	<path fill="#FFFFFF" d="M4086.708,3380.089h7.192l0.052,83.999h-7.208L4086.708,3380.089z"/>
	<path fill="#FFFFFF" d="M4137.379,3457.225l39.599-0.016v6.827l-46.796,0.041l-0.04-84.007l7.192-0.013L4137.379,3457.225z"/>
	<path fill="#FFFFFF" d="M4211.536,3457.187l39.601-0.025V3464l-46.803,0.033l-0.035-84.004l7.197-0.009L4211.536,3457.187z"/>
	<path fill="#FFFFFF" d="M4285.646,3386.839l0.014,27.341l30.001-0.009v6.849l-30.001,0.014l0.021,36.119l39.596-0.025l0.016,6.839
		l-46.801,0.03l-0.045-84.003l45.602-0.031v6.846L4285.646,3386.839z M4313.836,3355.617l-11.516,16.809h-5.523l7.921-16.802
		L4313.836,3355.617z"/>
</g>
</svg>
