<?xml version="1.0" encoding="utf-8"?>
<!-- Generator: Adobe Illustrator 15.0.0, SVG Export Plug-In . SVG Version: 6.00 Build 0)  -->
<!DOCTYPE svg PUBLIC "-//W3C//DTD SVG 1.0//EN" "http://www.w3.org/TR/2001/REC-SVG-20010904/DTD/svg10.dtd">
<svg version="1.0" id="Calque_1" xmlns="http://www.w3.org/2000/svg" xmlns:xlink="http://www.w3.org/1999/xlink" x="0px" y="0px"
	 width="2160px" height="1728px" viewBox="0 0 2160 1728" enable-background="new 0 0 2160 1728" xml:space="preserve">
<g id="BOTTES_2_">
	<path stroke="#000000" stroke-width="3" stroke-miterlimit="10" d="M1224.488,854.564c0,0,7.525,15.42,9.992,50.576
		s-1.234,49.959-12.211,56.496c-10.98,6.539-20.848,4.934-31.457,3.947c-10.607-0.986-11.102-1.727-11.842,0.248
		c-0.74,1.973-2.59,1.727-0.864,4.439c1.728,2.715,27.632,23.438,40.954,23.438s25.658-5.18,31.703-9.004
		c6.044-3.824,20.354-7.279,24.918-7.525c4.562-0.246,20.471-1.207,21.708-1.234c5.8-0.123,6.663-4.934,6.785-13.445
		c0.124-8.512-2.714-19.859-3.084-25.904c-0.368-6.045,0.37-14.926,0.864-30.715c0.459-14.65,5.182-52.674,5.182-52.674
		s-16.161-20.723-41.818-20.229C1236.232,833.537,1224.488,854.564,1224.488,854.564z"/>
	<path fill="#FFFFFF" d="M1262.543,983.008l4.163,14.525l20.446,0.186c0,0,4.904-4.35,8.604-10.178
		c3.699-5.828,6.015-11.934,6.015-11.934s-0.557,3.424-17.672,4.533C1281.323,980.32,1262.543,983.008,1262.543,983.008"/>
	<path stroke="#000000" stroke-width="3" stroke-linecap="round" stroke-linejoin="round" stroke-miterlimit="10" d="
		M1262.266,982.082l4.44,15.451l20.446,0.186c0,0,4.904-4.35,8.604-10.178c3.699-5.828,6.015-11.934,6.015-11.934
		s-1.297,0.74-5.367,1.941c-2.506,0.742-8.847,0.057-13.691,0.371C1279.938,978.1,1262.266,982.082,1262.266,982.082z"/>
	<path d="M1224.488,854.564c0,0,7.525,15.42,9.992,50.576s-1.234,49.959-12.211,56.496c-10.98,6.539-20.848,4.934-31.457,3.947
		c-10.607-0.986-11.102-1.727-11.842,0.248c-0.74,1.973-2.59,1.727-0.864,4.439c1.728,2.715,27.632,23.438,40.954,23.438
		s25.658-5.18,31.703-9.004c6.044-3.824,20.354-7.279,24.918-7.525c4.562-0.246,20.476-1.357,21.708-1.234
		c1.234,0.125,2.099,1.111,3.456,0.125c1.355-0.988,3.207-5.059,3.329-13.57c0.124-8.512-2.714-19.859-3.084-25.904
		c-0.368-6.045,0.37-14.926,0.864-30.715c0.459-14.65,5.182-52.674,5.182-52.674s-16.161-20.723-41.818-20.229
		C1236.232,833.537,1224.488,854.564,1224.488,854.564z"/>
	<polygon fill="#FFFFFF" stroke="#000000" stroke-width="3" stroke-miterlimit="10" points="1257.549,830.387 1260.633,856.908 
		1267.047,861.227 1273.338,856.416 1276.173,830.387 	"/>
	<path fill="none" stroke="#FFFFFF" stroke-width="2" stroke-linecap="round" stroke-linejoin="round" stroke-miterlimit="10" d="
		M1204.012,967.436c0,0,5.057,5.18,4.194,21.217"/>
	<path fill="none" stroke="#FFFFFF" stroke-width="2" stroke-linecap="round" stroke-linejoin="round" stroke-miterlimit="10" d="
		M1266.676,976.934"/>
	
		<line fill="none" stroke="#FFFFFF" stroke-width="2" stroke-linecap="round" stroke-linejoin="round" stroke-miterlimit="10" x1="1267.047" y1="855.889" x2="1267.047" y2="980.23"/>
	<path display="none" fill="#FFFFFF" d="M1261.865,876.922c0,0-4.936-6.197-6.537-11.748c-1.604-5.551-1.111-11.719-1.111-11.719
		s-5.182,7.771-11.226,9.498s-10.608,1.852-10.115,1.975c0.495,0.123,14.435,1.85,14.435,1.85l-7.525,5.551c0,0,7.277,0,9.004-1.604
		s-4.934,5.305-4.439,5.057c0.491-0.246,7.297-3.949,8.881-4.193c1.604-0.248,4.072,4.812,4.072,4.812L1261.865,876.922z"/>
	<path display="none" fill="#FFFFFF" d="M1273.521,877.477c0,0,5.615-7.121,7.218-12.674c1.602-5.551,1.11-11.719,1.11-11.719
		s5.18,7.771,11.224,9.5c6.046,1.727,10.116,1.973,10.116,1.973s-5.45,2.877-8.389,2.715c-2.219-0.123-6.044-0.863-6.044-0.863
		l7.524,5.549c0,0-7.277,0-9.004-1.602c-1.727-1.605,4.934,5.303,4.439,5.057c-0.493-0.246-7.295-3.949-8.881-4.193
		c-1.604-0.248-4.256,5.455-4.256,5.455L1273.521,877.477z"/>
	<path id="COEUR_1_" fill="#FFFFFF" d="M1267.416,881.146c0,0-4.316-7.461-11.596-4.254c-7.278,3.207-5.9,10.846-3.576,15.42
		c3.701,7.277,15.172,19.365,15.172,19.365s14.026-15.018,16.283-18.75c3.207-5.305,3.885-12.523-2.743-15.838
		C1273.956,873.588,1267.416,881.146,1267.416,881.146z"/>
	<path d="M1178.724,972.025c0,0-1.974-1.605-3.946,0.494c-1.633,1.734,0.492,3.699,3.453,6.166c2.96,2.469,21.34,19.49,35.65,21.096
		c14.309,1.602,22.82-1.482,27.385-3.332s13.939-7.402,17.639-9.252c3.701-1.85,5.182-2.838,11.965-3.33
		c6.785-0.494,24.109-1.633,25.219-1.633c2.406,0,5.545-4.072,4.684-4.998c-0.377-0.402-1.652-0.154-3.75-0.277
		c-6.658-0.393-30.838,0.975-35.897,2.701c-5.056,1.727-18.997,10.129-21.339,11.73c-2.345,1.605-14.104,3.486-21.588,2.221
		C1200.682,990.652,1178.724,972.025,1178.724,972.025"/>
	<path fill="none" stroke="#000000" stroke-width="2" stroke-miterlimit="10" d="M1227.449,860.979c0,0,15.914-20.723,38.363-22.203
		c18.627-0.246,40.953,22.328,40.953,22.328"/>
	<path fill="none" stroke="#FFFFFF" stroke-width="3" stroke-linecap="round" stroke-linejoin="round" stroke-miterlimit="10" d="
		M1176.998,971.504c0,0,10.756,10.867,24.547,17.764c3.453,1.729,14.062,6.773,29.357,4.305
		c15.297-2.467,22.405-8.377,27.016-10.842c10.732-5.736,40.461-5.305,40.461-5.305"/>
	<path fill="#FFFFFF" d="M1267.664,944.861c-5.724-0.508-10.631-4.051-10.115-7.031c0.615-3.578,6.289-5.676,6.166-8.758
		c-0.02-0.498,2.797-10.297-4.131-7.217c-1.111,0.494,1.479,5.734-1.172,8.203c-1.482,1.379-5.057,0.615-4.564-2.098
		c0.652-3.594,2.652-9.807,1.294-12.027c-1.202-1.967-7.407-4.045-9.252-11.287c-1.788-7.031-0.677-13.199-0.677-13.199
		s-5.704,9.504-4.688,14.68c1.234,6.291,10.755,17.984,7.772,19.059c-3.084,1.109-5.676-7.957-6.908-7.709
		c-1.234,0.246-1.357,6.168-0.123,8.881c1.232,2.715,5.254,5.471,3.33,6.043c-4.441,1.324-5.057-4.281-7.155-3.576
		c-2.097,0.707-0.497,9.83,2.96,14.324c6.416,8.34,18.573,12.236,27.016,12.354"/>
	<path fill="#FFFFFF" d="M1266.106,944.861c5.722-0.508,11.369-4.051,10.856-7.031c-0.617-3.578-6.291-5.676-6.168-8.758
		c0.123-3.084,3.021-7.711,4.133-7.217c1.109,0.494-1.48,5.734,1.172,8.203c1.48,1.379,5.057,0.615,4.564-2.098
		c-0.655-3.594-2.652-9.807-1.295-12.027c1.354-2.221,7.461-4.256,9.25-11.287s0.68-13.199,0.68-13.199s5.701,9.504,4.688,14.68
		c-1.234,6.291-10.756,17.984-7.771,19.059c3.082,1.109,5.674-7.957,6.908-7.709c1.232,0.246,1.355,6.168,0.123,8.881
		c-1.234,2.715-5.257,5.471-3.332,6.043c4.441,1.324,5.057-4.281,7.156-3.576c2.096,0.707,0.496,9.83-2.962,14.324
		c-6.416,8.34-20.052,12.236-28.495,12.354"/>
</g>
</svg>
