<?xml version="1.0" encoding="utf-8"?>
<!-- Generator: Adobe Illustrator 15.0.0, SVG Export Plug-In . SVG Version: 6.00 Build 0)  -->
<!DOCTYPE svg PUBLIC "-//W3C//DTD SVG 1.0//EN" "http://www.w3.org/TR/2001/REC-SVG-20010904/DTD/svg10.dtd">
<svg version="1.0" id="Calque_1" xmlns="http://www.w3.org/2000/svg" xmlns:xlink="http://www.w3.org/1999/xlink" x="0px" y="0px"
	 width="2160px" height="1728px" viewBox="0 0 2160 1728" enable-background="new 0 0 2160 1728" xml:space="preserve">
<path d="M1305.566,892.949c0,0-4.838,5.227-6.576,8.889c-2.262,4.768-4.117,15.562-5.48,19.059
	c-1.363,3.492-4.543,9.027-4.543,9.027s-2.293,2.578-4.324,4.283c-2.039,1.705-6.926,3.855-11.021,6.938
	c-4.098,3.082-13.264,8.752-8.422,13.688c4.846,4.938,24.809,3.223,24.809,3.223s23.777-4.822,29.299-8.887
	c5.518-4.053,5.145-13.361,6.26-17.688c1.109-4.312,3.668-15.152,7.338-17.895c3.668-2.744,10.533-7.881,10.533-7.881l13.734,18.74
	l6.203-5.193l-7.893-24.559c0.572-7.787-4.932-16.82-8.652-20.979c-3.732-4.164-4.459-3.775-6.533-6.115
	c0,0-3.57,6.459-17.271,14.207C1312.049,888.016,1305.566,892.949,1305.566,892.949z M1308.186,919.01
	c-0.859-0.078-9.434-1.633-9.82-3.965c-0.389-2.324,3.518-14.5,7.184-16.854c0,0,1.715,12.832,2.033,14.389
	C1307.891,914.158,1309.016,919.115,1308.186,919.01z M1325.123,903.771c-0.32,1.889-9.375,17.006-11.412,15.008
	c-2.041-2.01-4.936-21.738-3.91-23.693c1.004-1.949,11.916-8.035,11.916-8.035s-0.244,6.434,0.895,9.543
	C1323.74,899.68,1325.428,901.891,1325.123,903.771z"/>
<path d="M1155.986,869.9c0,0-19.756,19.758-19.191,27.66s12.983,20.885,12.983,20.885l6.208-2.258c0,0,4.517-2.822,9.032,11.854
	c4.515,14.676,6.773,18.629,16.369,24.273s49.966,4.244,58.704,0c6.588-3.197-3.387-12.42-12.699-16.936
	c-9.314-4.514-14.959-7.588-18.346-13.736c-3.387-6.146-2.822-24.082-9.596-24.646s-19.192,1.129-19.192,1.129
	c-0.564,3.953,5.08,23.145-0.564,20.885c-5.645-2.258-17.498-19.975-19.756-30.025S1162.196,871.596,1155.986,869.9z"/>
</svg>
