<?xml version="1.0" encoding="utf-8"?>
<!-- Generator: Adobe Illustrator 15.0.0, SVG Export Plug-In . SVG Version: 6.00 Build 0)  -->
<!DOCTYPE svg PUBLIC "-//W3C//DTD SVG 1.0//EN" "http://www.w3.org/TR/2001/REC-SVG-20010904/DTD/svg10.dtd">
<svg version="1.0" id="Calque_1" xmlns="http://www.w3.org/2000/svg" xmlns:xlink="http://www.w3.org/1999/xlink" x="0px" y="0px"
	 width="2160px" height="1728px" viewBox="0 0 2160 1728" enable-background="new 0 0 2160 1728" xml:space="preserve">
<g>
	<path d="M957.845,975.732v14.518h-2.824v-19.771h1.977l11.863,14.518v-14.518h2.825v19.771h-1.978L957.845,975.732z"/>
	<path d="M975.639,980.364c0-1.431,0.254-2.768,0.763-4.011c0.508-1.243,1.205-2.32,2.09-3.234c0.885-0.913,1.93-1.628,3.135-2.146
		c1.205-0.518,2.504-0.776,3.898-0.776c1.393,0,2.692,0.259,3.897,0.776c1.205,0.519,2.25,1.233,3.135,2.146
		c0.885,0.914,1.582,1.991,2.09,3.234s0.763,2.58,0.763,4.011c0,1.45-0.254,2.792-0.763,4.025s-1.206,2.307-2.09,3.22
		c-0.885,0.913-1.93,1.629-3.135,2.146s-2.504,0.776-3.897,0.776c-1.394,0-2.693-0.259-3.898-0.776
		c-1.205-0.518-2.25-1.233-3.135-2.146c-0.885-0.913-1.582-1.986-2.09-3.22C975.893,983.156,975.639,981.814,975.639,980.364z
		 M978.463,980.364c0,1.073,0.179,2.066,0.537,2.979c0.357,0.914,0.852,1.705,1.483,2.373c0.631,0.669,1.375,1.191,2.231,1.567
		c0.856,0.377,1.793,0.565,2.811,0.565c1.017,0,1.953-0.188,2.81-0.565c0.857-0.376,1.601-0.898,2.231-1.567
		c0.631-0.668,1.125-1.459,1.483-2.373c0.357-0.913,0.537-1.906,0.537-2.979s-0.179-2.066-0.537-2.979
		c-0.358-0.913-0.852-1.704-1.483-2.373c-0.631-0.668-1.375-1.19-2.231-1.567s-1.793-0.565-2.81-0.565
		c-1.017,0-1.954,0.188-2.811,0.565c-0.857,0.377-1.601,0.899-2.231,1.567c-0.631,0.669-1.125,1.46-1.483,2.373
		C978.642,978.298,978.463,979.291,978.463,980.364z"/>
	<path d="M999.562,985.505c0.282,0.302,0.583,0.593,0.904,0.876c0.32,0.282,0.668,0.532,1.045,0.748
		c0.376,0.217,0.791,0.391,1.243,0.522c0.452,0.132,0.951,0.198,1.497,0.198c0.396,0,0.805-0.062,1.229-0.184
		c0.424-0.123,0.805-0.312,1.144-0.565s0.617-0.564,0.833-0.932c0.216-0.367,0.325-0.796,0.325-1.285c0-0.509-0.113-0.941-0.339-1.3
		c-0.226-0.357-0.527-0.678-0.904-0.96c-0.377-0.282-0.805-0.537-1.285-0.763c-0.48-0.226-0.984-0.442-1.511-0.649
		c-0.49-0.207-0.975-0.419-1.455-0.636c-0.48-0.216-0.937-0.456-1.37-0.721c-0.716-0.47-1.304-1.063-1.765-1.779
		c-0.461-0.715-0.692-1.591-0.692-2.627c0-0.715,0.15-1.393,0.452-2.033c0.301-0.64,0.72-1.2,1.257-1.681
		c0.537-0.48,1.167-0.856,1.893-1.13c0.725-0.272,1.521-0.409,2.387-0.409c0.622,0,1.201,0.062,1.737,0.184s1.026,0.282,1.469,0.48
		c0.442,0.197,0.837,0.409,1.186,0.635c0.348,0.227,0.654,0.452,0.918,0.678l-1.667,2.062c-1.073-0.904-2.25-1.356-3.531-1.356
		c-0.414,0-0.814,0.057-1.2,0.17c-0.386,0.113-0.734,0.282-1.045,0.509c-0.311,0.226-0.561,0.504-0.749,0.833
		c-0.188,0.329-0.283,0.711-0.283,1.144c0,0.396,0.108,0.749,0.325,1.06c0.216,0.311,0.503,0.593,0.861,0.848
		c0.357,0.254,0.767,0.489,1.229,0.706c0.461,0.216,0.946,0.428,1.455,0.635c0.49,0.208,0.984,0.424,1.483,0.65
		c0.499,0.226,0.965,0.479,1.398,0.762c0.339,0.227,0.659,0.485,0.96,0.777s0.574,0.626,0.819,1.003
		c0.244,0.377,0.438,0.8,0.579,1.271c0.141,0.471,0.211,0.988,0.211,1.554c0,0.848-0.165,1.624-0.494,2.33
		c-0.33,0.706-0.777,1.313-1.342,1.822c-0.564,0.508-1.229,0.899-1.991,1.172s-1.577,0.409-2.443,0.409
		c-1.299,0-2.542-0.282-3.729-0.847c-1.186-0.565-2.203-1.385-3.05-2.458L999.562,985.505z"/>
	<path d="M1028.198,982.133v8.117h-3.845v-19.937h7.461c1.405,0,2.549,0.21,3.432,0.627c0.883,0.418,1.599,0.987,2.15,1.709
		c0.797,1.025,1.196,2.212,1.196,3.56c0,1.367-0.398,2.563-1.196,3.589c-0.551,0.722-1.268,1.291-2.15,1.709
		s-2.027,0.626-3.432,0.626H1028.198z M1031.331,978.772c0.816,0,1.428-0.08,1.837-0.242c0.408-0.161,0.726-0.375,0.954-0.641
		c0.417-0.475,0.626-1.035,0.626-1.681c0-0.626-0.209-1.177-0.626-1.651c-0.228-0.266-0.546-0.479-0.954-0.641
		c-0.409-0.161-1.021-0.242-1.837-0.242h-3.133v5.098H1031.331z"/>
	<path d="M1055.368,975.811c0,1.291-0.352,2.416-1.054,3.375c-0.703,0.959-1.69,1.628-2.962,2.008l6.864,9.057h-4.614l-6.607-8.829
		h-1.452v8.829h-3.845v-19.937h7.604c1.196,0,2.202,0.204,3.019,0.612c0.816,0.409,1.471,0.945,1.965,1.609
		c0.342,0.456,0.607,0.964,0.798,1.523C1055.272,974.619,1055.368,975.203,1055.368,975.811z M1048.703,978.146
		c0.646,0,1.139-0.071,1.481-0.213c0.342-0.143,0.617-0.337,0.826-0.584c0.342-0.437,0.513-0.921,0.513-1.453
		c0-0.513-0.171-0.986-0.513-1.424c-0.209-0.246-0.484-0.441-0.826-0.584c-0.342-0.142-0.835-0.213-1.481-0.213h-3.161v4.471
		H1048.703z"/>
	<path d="M1078.808,980.282c0,1.48-0.262,2.848-0.783,4.101c-0.522,1.253-1.239,2.336-2.15,3.247
		c-0.912,0.911-1.985,1.623-3.219,2.136c-1.234,0.513-2.563,0.77-3.987,0.77c-1.424,0-2.753-0.257-3.987-0.77
		c-1.235-0.513-2.307-1.225-3.218-2.136c-0.912-0.911-1.628-1.994-2.15-3.247c-0.522-1.253-0.783-2.62-0.783-4.101
		c0-1.481,0.261-2.849,0.783-4.102c0.522-1.253,1.239-2.335,2.15-3.247c0.911-0.911,1.983-1.623,3.218-2.136
		c1.234-0.513,2.563-0.769,3.987-0.769c1.424,0,2.753,0.256,3.987,0.769c1.234,0.513,2.307,1.225,3.219,2.136
		c0.911,0.912,1.628,1.994,2.15,3.247C1078.546,977.434,1078.808,978.801,1078.808,980.282z M1062.374,980.282
		c0,0.949,0.157,1.837,0.47,2.662c0.313,0.826,0.745,1.548,1.296,2.165s1.215,1.106,1.994,1.467c0.778,0.36,1.624,0.541,2.535,0.541
		c0.912,0,1.756-0.181,2.535-0.541c0.778-0.36,1.442-0.85,1.993-1.467s0.983-1.339,1.296-2.165c0.313-0.825,0.47-1.713,0.47-2.662
		c0-0.931-0.156-1.813-0.47-2.649c-0.313-0.835-0.745-1.562-1.296-2.179c-0.551-0.616-1.215-1.105-1.993-1.467
		c-0.779-0.36-1.624-0.541-2.535-0.541c-0.911,0-1.756,0.181-2.535,0.541c-0.779,0.361-1.443,0.851-1.994,1.467
		c-0.551,0.617-0.982,1.344-1.296,2.179C1062.531,978.469,1062.374,979.352,1062.374,980.282z"/>
	<path d="M1096.948,975.782c-0.702-0.665-1.48-1.22-2.335-1.666s-1.842-0.67-2.962-0.67c-1.007,0-1.913,0.181-2.72,0.541
		c-0.808,0.361-1.5,0.851-2.079,1.467c-0.579,0.617-1.025,1.344-1.339,2.179c-0.313,0.836-0.47,1.719-0.47,2.649
		c0,0.949,0.151,1.837,0.456,2.662c0.303,0.826,0.744,1.548,1.324,2.165c0.579,0.617,1.276,1.106,2.093,1.467
		s1.737,0.541,2.763,0.541c0.911,0,1.719-0.118,2.421-0.356c0.702-0.236,1.386-0.612,2.051-1.125v-4.357h-5.269v-3.274h8.971v8.687
		c-0.911,1.158-2.069,2.089-3.475,2.791s-2.972,1.054-4.699,1.054c-1.538,0-2.947-0.257-4.229-0.77
		c-1.281-0.513-2.388-1.225-3.317-2.136c-0.931-0.911-1.652-1.994-2.165-3.247s-0.769-2.62-0.769-4.101
		c0-1.481,0.261-2.849,0.783-4.102c0.521-1.253,1.248-2.335,2.179-3.247c0.93-0.911,2.031-1.623,3.304-2.136
		c1.271-0.513,2.658-0.769,4.158-0.769c1.595,0,3.042,0.323,4.343,0.968c1.301,0.646,2.407,1.463,3.318,2.449L1096.948,975.782z"/>
	<path d="M1117.396,975.811c0,1.291-0.352,2.416-1.054,3.375s-1.689,1.628-2.962,2.008l6.864,9.057h-4.614l-6.607-8.829h-1.452
		v8.829h-3.845v-19.937h7.604c1.196,0,2.203,0.204,3.02,0.612c0.816,0.409,1.471,0.945,1.965,1.609
		c0.342,0.456,0.607,0.964,0.798,1.523C1117.302,974.619,1117.396,975.203,1117.396,975.811z M1110.732,978.146
		c0.646,0,1.14-0.071,1.481-0.213c0.342-0.143,0.616-0.337,0.825-0.584c0.342-0.437,0.513-0.921,0.513-1.453
		c0-0.513-0.171-0.986-0.513-1.424c-0.209-0.246-0.483-0.441-0.825-0.584c-0.342-0.142-0.836-0.213-1.481-0.213h-3.161v4.471
		H1110.732z"/>
	<path d="M1120.074,990.25l8.259-19.937h2.849l8.259,19.937h-4.072l-1.823-4.414h-7.689l-1.822,4.414H1120.074z M1127.279,982.418
		h4.87l-2.392-6.123L1127.279,982.418z"/>
	<path d="M1151.857,980.538l6.949-10.225h2.849v19.937h-3.788v-12.246l-5.668,8.401h-0.74l-5.667-8.401v12.246h-3.788v-19.937h2.848
		L1151.857,980.538z"/>
	<path d="M1176.293,980.538l6.949-10.225h2.849v19.937h-3.788v-12.246l-5.668,8.401h-0.74l-5.667-8.401v12.246h-3.788v-19.937h2.848
		L1176.293,980.538z"/>
	<path d="M1194.72,973.731v4.13h6.408v3.417h-6.408v5.554h8.401v3.418h-12.246v-19.937h11.962v3.418H1194.72z"/>
	<path d="M1207.364,985.181c0.627,0.551,1.362,1.011,2.207,1.381s1.724,0.556,2.635,0.556c0.38,0,0.755-0.052,1.125-0.156
		s0.697-0.266,0.982-0.484c0.285-0.218,0.518-0.489,0.698-0.812c0.18-0.323,0.271-0.702,0.271-1.14c0-0.417-0.11-0.773-0.328-1.068
		c-0.219-0.294-0.503-0.56-0.854-0.797s-0.76-0.451-1.225-0.641s-0.954-0.38-1.467-0.57c-0.437-0.151-0.864-0.317-1.281-0.498
		c-0.418-0.181-0.816-0.385-1.196-0.612c-0.798-0.456-1.457-1.054-1.979-1.794c-0.522-0.741-0.783-1.681-0.783-2.82
		c0-0.911,0.181-1.718,0.541-2.42c0.36-0.703,0.841-1.296,1.438-1.78s1.296-0.854,2.094-1.111c0.797-0.256,1.632-0.384,2.506-0.384
		c1.025,0,2.026,0.166,3.005,0.498c0.978,0.332,1.894,0.831,2.748,1.495l-1.908,2.706c-0.531-0.38-1.11-0.688-1.737-0.926
		c-0.626-0.237-1.291-0.356-1.993-0.356c-0.969,0-1.686,0.219-2.15,0.655c-0.466,0.438-0.698,0.931-0.698,1.481
		c0,0.398,0.118,0.735,0.356,1.011c0.237,0.275,0.551,0.522,0.939,0.74c0.389,0.219,0.836,0.423,1.339,0.612
		c0.503,0.19,1.021,0.399,1.552,0.627c0.342,0.152,0.679,0.304,1.012,0.455c0.332,0.152,0.659,0.323,0.982,0.513
		c0.816,0.476,1.51,1.106,2.079,1.895s0.854,1.809,0.854,3.062c0,0.893-0.176,1.704-0.527,2.435
		c-0.352,0.731-0.831,1.367-1.438,1.908c-0.607,0.542-1.329,0.959-2.164,1.254c-0.836,0.294-1.747,0.441-2.734,0.441
		c-2.772,0-5.136-0.979-7.092-2.934L1207.364,985.181z"/>
</g>
<g>
	<polygon points="1031.499,856.817 1036.651,852.801 993.181,852.801 980.245,806.228 977.896,814.357 989.881,856.817 	"/>
	<polygon points="987.303,858.724 976.32,819.814 966.79,852.801 925.909,852.801 956.44,879.711 946.608,919.042 980.761,895.754 
		1011.812,919.042 1001.462,880.229 1027.65,859.817 988.746,859.817 	"/>
	<line fill="#FFFFFF" x1="1031.499" y1="856.817" x2="1027.65" y2="859.817"/>
	<line fill="#FFFFFF" x1="976.32" y1="819.814" x2="977.896" y2="814.357"/>
	<polygon fill="#FFFFFF" points="989.881,856.817 977.896,814.357 976.32,819.814 987.303,858.724 988.746,859.817 1027.65,859.817 
		1031.499,856.817 	"/>
</g>
<g>
	<polygon points="1230.86,856.817 1236.013,852.801 1192.542,852.801 1179.606,806.228 1177.428,813.769 1189.578,856.817 	"/>
	<polygon points="1187,858.724 1175.852,819.225 1166.149,852.801 1125.271,852.801 1155.802,879.711 1145.97,919.042 
		1180.122,895.754 1211.173,919.042 1200.823,880.229 1227.012,859.817 1188.443,859.817 	"/>
	<line fill="#FFFFFF" x1="1175.852" y1="819.225" x2="1177.428" y2="813.769"/>
	<line fill="#FFFFFF" x1="1230.86" y1="856.817" x2="1227.012" y2="859.817"/>
	<polygon fill="#FFFFFF" points="1189.578,856.817 1177.428,813.769 1175.852,819.225 1187,858.724 1188.443,859.817 
		1227.012,859.817 1230.86,856.817 	"/>
</g>
<g>
	<polygon points="1129.881,777.755 1135.487,773.385 1092.019,773.385 1079.083,726.812 1076.683,735.119 1088.719,777.755 	"/>
	<polygon points="1086.141,779.663 1075.106,740.576 1065.628,773.385 1024.745,773.385 1055.278,800.295 1045.446,839.626 
		1079.599,816.337 1110.649,839.626 1100.3,800.812 1126.032,780.755 1087.584,780.755 	"/>
	<line fill="#FFFFFF" x1="1129.881" y1="777.755" x2="1126.032" y2="780.755"/>
	<line fill="#FFFFFF" x1="1075.106" y1="740.576" x2="1076.683" y2="735.119"/>
	<polygon fill="#FFFFFF" points="1088.719,777.755 1076.683,735.119 1075.106,740.576 1086.141,779.663 1087.584,780.755 
		1126.032,780.755 1129.881,777.755 	"/>
</g>
<g>
	<path fill="#FFFFFF" d="M987.324,883.79v6.417H965.72v-4.278l10.268-9.241c0.741-0.684,1.369-1.311,1.883-1.882
		c0.513-0.57,0.926-1.104,1.24-1.604c0.313-0.498,0.535-0.977,0.663-1.434c0.128-0.455,0.192-0.926,0.192-1.411
		c0-1.083-0.363-1.996-1.091-2.737c-0.728-0.742-1.647-1.113-2.76-1.113c-1.141,0-2.153,0.422-3.037,1.262
		c-0.884,0.842-1.44,2.118-1.668,3.83l-6.332-1.541c0.228-1.54,0.656-2.938,1.283-4.192c0.627-1.254,1.433-2.332,2.417-3.23
		c0.984-0.898,2.131-1.589,3.444-2.075c1.312-0.485,2.766-0.728,4.363-0.728c1.483,0,2.881,0.271,4.193,0.813
		c1.312,0.542,2.452,1.284,3.422,2.225c0.97,0.941,1.732,2.04,2.289,3.294c0.556,1.256,0.834,2.582,0.834,3.979
		c0,0.828-0.1,1.654-0.299,2.481c-0.2,0.827-0.528,1.669-0.984,2.524c-0.457,0.855-1.062,1.74-1.818,2.652s-1.689,1.868-2.802,2.866
		l-3.466,3.123H987.324z"/>
</g>
<g>
	<path fill="#FFFFFF" d="M1063.656,808.229v-6.631h7.915v-14.888l-6.204,3.465v-7.102l8.557-4.792h5.134v23.316h6.417v6.631
		H1063.656z"/>
</g>
<g>
	<path fill="#FFFFFF" d="M1168.486,882.266c0.541,0.885,1.275,1.576,2.203,2.075c0.927,0.499,1.96,0.749,3.102,0.749
		c0.627,0,1.212-0.114,1.754-0.343c0.542-0.228,1.012-0.542,1.412-0.941c0.398-0.399,0.72-0.87,0.962-1.411
		c0.242-0.542,0.364-1.141,0.364-1.797c0-0.686-0.129-1.298-0.385-1.84c-0.257-0.541-0.606-0.998-1.049-1.369
		s-0.948-0.656-1.519-0.855c-0.571-0.199-1.17-0.3-1.797-0.3c-0.656,0-1.276,0.079-1.861,0.235c-0.585,0.157-1.19,0.35-1.817,0.578
		v-4.021l5.176-5.562h-10.31v-6.203h20.106v4.278l-5.604,6.075c1.824,0.742,3.322,1.918,4.491,3.529
		c1.17,1.611,1.755,3.559,1.755,5.84c0,1.54-0.3,2.959-0.898,4.257c-0.6,1.298-1.412,2.417-2.438,3.358
		c-1.027,0.941-2.24,1.684-3.637,2.225c-1.397,0.541-2.896,0.812-4.492,0.812c-2.539,0-4.771-0.578-6.695-1.732
		c-1.925-1.155-3.43-2.688-4.514-4.6L1168.486,882.266z"/>
</g>
</svg>
