<?xml version="1.0" encoding="utf-8"?>
<!-- Generator: Adobe Illustrator 15.0.0, SVG Export Plug-In . SVG Version: 6.00 Build 0)  -->
<!DOCTYPE svg PUBLIC "-//W3C//DTD SVG 1.0//EN" "http://www.w3.org/TR/2001/REC-SVG-20010904/DTD/svg10.dtd">
<svg version="1.0" id="Calque_1" xmlns="http://www.w3.org/2000/svg" xmlns:xlink="http://www.w3.org/1999/xlink" x="0px" y="0px"
	 width="2160px" height="1728px" viewBox="0 0 2160 1728" enable-background="new 0 0 2160 1728" xml:space="preserve">
<g>
	<polygon points="1031.499,856.817 1036.651,852.801 993.181,852.801 980.245,806.228 977.896,814.357 989.881,856.817 	"/>
	<polygon points="987.303,858.724 976.32,819.814 966.79,852.801 925.909,852.801 956.44,879.711 946.608,919.042 980.761,895.754 
		1011.812,919.042 1001.462,880.229 1027.65,859.817 988.746,859.817 	"/>
	<line fill="#FFFFFF" x1="1031.499" y1="856.817" x2="1027.65" y2="859.817"/>
	<line fill="#FFFFFF" x1="976.32" y1="819.814" x2="977.896" y2="814.357"/>
	<polygon fill="#FFFFFF" points="989.881,856.817 977.896,814.357 976.32,819.814 987.303,858.724 988.746,859.817 1027.65,859.817 
		1031.499,856.817 	"/>
</g>
<g>
	<polygon points="1230.86,856.817 1236.013,852.801 1192.542,852.801 1179.606,806.228 1177.428,813.769 1189.578,856.817 	"/>
	<polygon points="1187,858.724 1175.852,819.225 1166.149,852.801 1125.271,852.801 1155.802,879.711 1145.97,919.042 
		1180.122,895.754 1211.173,919.042 1200.823,880.229 1227.012,859.817 1188.443,859.817 	"/>
	<line fill="#FFFFFF" x1="1175.852" y1="819.225" x2="1177.428" y2="813.769"/>
	<line fill="#FFFFFF" x1="1230.86" y1="856.817" x2="1227.012" y2="859.817"/>
	<polygon fill="#FFFFFF" points="1189.578,856.817 1177.428,813.769 1175.852,819.225 1187,858.724 1188.443,859.817 
		1227.012,859.817 1230.86,856.817 	"/>
</g>
<g>
	<polygon points="1129.881,777.755 1135.487,773.385 1092.019,773.385 1079.083,726.812 1076.683,735.119 1088.719,777.755 	"/>
	<polygon points="1086.141,779.663 1075.106,740.576 1065.628,773.385 1024.745,773.385 1055.278,800.295 1045.446,839.626 
		1079.599,816.337 1110.649,839.626 1100.3,800.812 1126.032,780.755 1087.584,780.755 	"/>
	<line fill="#FFFFFF" x1="1129.881" y1="777.755" x2="1126.032" y2="780.755"/>
	<line fill="#FFFFFF" x1="1075.106" y1="740.576" x2="1076.683" y2="735.119"/>
	<polygon fill="#FFFFFF" points="1088.719,777.755 1076.683,735.119 1075.106,740.576 1086.141,779.663 1087.584,780.755 
		1126.032,780.755 1129.881,777.755 	"/>
</g>
<g>
	<path fill="#FFFFFF" d="M987.324,883.79v6.417H965.72v-4.278l10.268-9.241c0.741-0.684,1.369-1.311,1.883-1.882
		c0.513-0.57,0.926-1.104,1.24-1.604c0.313-0.498,0.535-0.977,0.663-1.434c0.128-0.455,0.192-0.926,0.192-1.411
		c0-1.083-0.363-1.996-1.091-2.737c-0.728-0.742-1.647-1.113-2.76-1.113c-1.141,0-2.153,0.422-3.037,1.262
		c-0.884,0.842-1.44,2.118-1.668,3.83l-6.332-1.541c0.228-1.54,0.656-2.938,1.283-4.192c0.627-1.254,1.433-2.332,2.417-3.23
		c0.984-0.898,2.131-1.589,3.444-2.075c1.312-0.485,2.766-0.728,4.363-0.728c1.483,0,2.881,0.271,4.193,0.813
		c1.312,0.542,2.452,1.284,3.422,2.225c0.97,0.941,1.732,2.04,2.289,3.294c0.556,1.256,0.834,2.582,0.834,3.979
		c0,0.828-0.1,1.654-0.299,2.481c-0.2,0.827-0.528,1.669-0.984,2.524c-0.457,0.855-1.062,1.74-1.818,2.652s-1.689,1.868-2.802,2.866
		l-3.466,3.123H987.324z"/>
</g>
<g>
	<path fill="#FFFFFF" d="M1063.656,808.229v-6.631h7.915v-14.888l-6.204,3.465v-7.102l8.557-4.792h5.134v23.316h6.417v6.631
		H1063.656z"/>
</g>
<g>
	<path fill="#FFFFFF" d="M1168.486,882.266c0.541,0.885,1.275,1.576,2.203,2.075c0.927,0.499,1.96,0.749,3.102,0.749
		c0.627,0,1.212-0.114,1.754-0.343c0.542-0.228,1.012-0.542,1.412-0.941c0.398-0.399,0.72-0.87,0.962-1.411
		c0.242-0.542,0.364-1.141,0.364-1.797c0-0.686-0.129-1.298-0.385-1.84c-0.257-0.541-0.606-0.998-1.049-1.369
		s-0.948-0.656-1.519-0.855c-0.571-0.199-1.17-0.3-1.797-0.3c-0.656,0-1.276,0.079-1.861,0.235c-0.585,0.157-1.19,0.35-1.817,0.578
		v-4.021l5.176-5.562h-10.31v-6.203h20.106v4.278l-5.604,6.075c1.824,0.742,3.322,1.918,4.491,3.529
		c1.17,1.611,1.755,3.559,1.755,5.84c0,1.54-0.3,2.959-0.898,4.257c-0.6,1.298-1.412,2.417-2.438,3.358
		c-1.027,0.941-2.24,1.684-3.637,2.225c-1.397,0.541-2.896,0.812-4.492,0.812c-2.539,0-4.771-0.578-6.695-1.732
		c-1.925-1.155-3.43-2.688-4.514-4.6L1168.486,882.266z"/>
</g>
</svg>
