<?xml version="1.0" encoding="utf-8"?>
<!-- Generator: Adobe Illustrator 15.0.0, SVG Export Plug-In . SVG Version: 6.00 Build 0)  -->
<!DOCTYPE svg PUBLIC "-//W3C//DTD SVG 1.0//EN" "http://www.w3.org/TR/2001/REC-SVG-20010904/DTD/svg10.dtd">
<svg version="1.0" id="Calque_1" xmlns="http://www.w3.org/2000/svg" xmlns:xlink="http://www.w3.org/1999/xlink" x="0px" y="0px"
	 width="2160px" height="1728px" viewBox="0 0 2160 1728" enable-background="new 0 0 2160 1728" xml:space="preserve">
<g>
	<path d="M1205.068,839.051c-9.287,0-16.816-7.53-16.816-16.816c0-9.289,7.529-16.816,16.816-16.816h18.111
		c9.287,0,16.816,7.528,16.816,16.816c0,9.286-7.529,16.816-16.816,16.816H1205.068z"/>
	<polygon fill="#2B2523" points="1193.244,811.885 1103.736,806.71 1103.307,838.188 1191.949,832.582 	"/>
	<path fill="#2B2523" d="M1224.473,793.775c-3.336,0-6.037-2.509-6.037-5.605c0-3.096,2.701-5.606,6.037-5.606
		c3.334,0,6.035,2.51,6.035,5.606C1230.508,791.266,1227.807,793.775,1224.473,793.775"/>
	<path fill="#2B2523" d="M1203.344,793.775c-3.336,0-6.037-2.509-6.037-5.605c0-3.096,2.701-5.606,6.037-5.606
		c3.334,0,6.037,2.51,6.037,5.606C1209.381,791.266,1206.678,793.775,1203.344,793.775"/>
	<path fill="#2B2523" d="M1224.473,856.73c-3.336,0-6.037-2.51-6.037-5.606c0-3.096,2.701-5.606,6.037-5.606
		c3.334,0,6.035,2.51,6.035,5.606C1230.508,854.221,1227.807,856.73,1224.473,856.73"/>
	<path fill="#2B2523" d="M1203.344,856.73c-3.336,0-6.037-2.51-6.037-5.606c0-3.096,2.701-5.606,6.037-5.606
		c3.334,0,6.037,2.51,6.037,5.606C1209.381,854.221,1206.678,856.73,1203.344,856.73"/>
	<path d="M904.522,823.959c1.12-33.903,24.293-65.973,56.488-65.973c47.72,0,47.001,20.267,61.229,20.698
		c14.231,0.43,23-8.05,50.02-6.9c12.545,0.536,34.497,18.541,35.358,51.744c0.863,33.203-23.758,45.463-36.651,47.863
		c-20.842,3.881-30.533-6.037-48.727-6.037c-19.833,0-8.91,21.129-60.797,21.129C928.816,886.482,903.518,854.429,904.522,823.959"
		/>
	<path fill="#FFFFFF" d="M1009.304,844.366c-13.134,0-23.783-10.102-23.783-22.563c0-12.459,10.649-22.563,23.783-22.563
		c13.135,0,23.783,10.104,23.783,22.563C1033.087,834.264,1022.439,844.366,1009.304,844.366"/>
	
		<line fill="none" stroke="#FFFFFF" stroke-width="5" stroke-linecap="round" stroke-linejoin="round" stroke-miterlimit="10" x1="1074.416" y1="802.399" x2="1074.416" y2="841.207"/>
	
		<line fill="none" stroke="#FFFFFF" stroke-width="5" stroke-linecap="round" stroke-linejoin="round" stroke-miterlimit="10" x1="1055.875" y1="802.399" x2="1055.875" y2="841.207"/>
	
		<line fill="none" stroke="#FFFFFF" stroke-width="5" stroke-linecap="round" stroke-linejoin="round" stroke-miterlimit="10" x1="937.726" y1="802.399" x2="937.726" y2="841.207"/>
</g>
</svg>
