<?xml version="1.0" encoding="utf-8"?>
<!-- Generator: Adobe Illustrator 15.0.0, SVG Export Plug-In . SVG Version: 6.00 Build 0)  -->
<!DOCTYPE svg PUBLIC "-//W3C//DTD SVG 1.0//EN" "http://www.w3.org/TR/2001/REC-SVG-20010904/DTD/svg10.dtd">
<svg version="1.0" id="Calque_1" xmlns="http://www.w3.org/2000/svg" xmlns:xlink="http://www.w3.org/1999/xlink" x="0px" y="0px"
	 width="2160px" height="1728px" viewBox="0 0 2160 1728" enable-background="new 0 0 2160 1728" xml:space="preserve">
<circle fill="#231F20" cx="1105.641" cy="789.166" r="25.186"/>
<path fill="#FFFFFF" d="M1097.707,770.381c3.213-1.532,6.883-2.186,10.499-1.86c3.62,0.31,7.185,1.609,10.206,3.742
	c3.011,2.147,5.465,5.111,7.02,8.527c1.561,3.416,2.195,7.268,1.83,11.048c-0.345,3.788-1.713,7.51-3.929,10.68
	c-2.224,3.167-5.415,5.675-9.031,7.078c-3.62,1.393-7.593,1.75-11.298,1.001c-3.707-0.721-7.139-2.548-9.633-5.152
	c-0.078-0.081-0.075-0.209,0.006-0.287c0.064-0.062,0.16-0.072,0.234-0.033c3.131,1.636,6.443,2.559,9.733,2.678
	c3.288,0.106,6.529-0.521,9.395-1.891c2.872-1.347,5.417-3.324,7.435-5.783c2.038-2.445,3.416-5.473,3.912-8.682
	c0.495-3.21,0.148-6.573-1.049-9.645c-1.191-3.073-3.219-5.849-5.832-7.946c-2.59-2.126-5.773-3.575-9.149-4.113
	c-3.375-0.537-6.92-0.214-10.196,1.007c-0.104,0.038-0.219-0.015-0.258-0.118c-0.036-0.098,0.008-0.206,0.101-0.25L1097.707,770.381
	z"/>
<path d="M1088.119,894.533c-1.392,0-2.521-1.129-2.521-2.522c-0.029-1.085-1.322-10.599-2.691-20.669
	c-2.545-18.709-6.029-44.333-7.684-60.673c-1.459-14.412,2.675-24.822,6.4-31.016c4.078-6.783,8.543-10.131,8.731-10.27
	c1.119-0.829,2.698-0.593,3.526,0.526c0.828,1.119,0.594,2.694-0.521,3.524c-0.083,0.062-3.996,3.053-7.537,9.023
	c-4.754,8.014-6.632,17.336-5.582,27.704c1.646,16.256,5.124,41.828,7.663,60.5c2.028,14.92,2.738,20.24,2.738,21.351
	C1090.642,893.404,1089.513,894.533,1088.119,894.533z"/>
<path d="M1029.528,809.925c0,0-26.736,19.146-7.502,46.9c9.633,13.899,23.089,17.485,34.857,21.183
	c11.77,3.699,30.228,16.02,30.228,16.02s-3.639-27.451-21.697-39.819c-16.758-11.479-28.771-14.056-33.412-24.283
	C1026.957,818.806,1029.528,809.925,1029.528,809.925z"/>
</svg>
