<?xml version="1.0" encoding="utf-8"?>
<!-- Generator: Adobe Illustrator 15.0.0, SVG Export Plug-In . SVG Version: 6.00 Build 0)  -->
<!DOCTYPE svg PUBLIC "-//W3C//DTD SVG 1.0//EN" "http://www.w3.org/TR/2001/REC-SVG-20010904/DTD/svg10.dtd">
<svg version="1.0" id="Calque_1" xmlns="http://www.w3.org/2000/svg" xmlns:xlink="http://www.w3.org/1999/xlink" x="0px" y="0px"
	 width="2160px" height="1728px" viewBox="0 0 2160 1728" enable-background="new 0 0 2160 1728" xml:space="preserve">
<g>
	<path d="M921.21,951.494v8.756h-2.824v-19.771h7.485c0.96,0,1.765,0.113,2.415,0.339c0.649,0.227,1.219,0.547,1.708,0.96
		c0.603,0.509,1.078,1.126,1.426,1.851c0.348,0.725,0.523,1.511,0.523,2.358s-0.175,1.634-0.523,2.358
		c-0.349,0.726-0.824,1.342-1.426,1.85c-0.49,0.415-1.059,0.734-1.708,0.961c-0.65,0.226-1.455,0.339-2.415,0.339H921.21z
		 M925.729,948.811c0.678,0,1.215-0.08,1.61-0.24c0.396-0.159,0.725-0.371,0.988-0.635c0.245-0.264,0.438-0.561,0.579-0.89
		c0.141-0.33,0.212-0.683,0.212-1.06c0-0.376-0.071-0.729-0.212-1.06c-0.141-0.329-0.334-0.625-0.579-0.89
		c-0.264-0.263-0.593-0.475-0.988-0.635s-0.932-0.24-1.61-0.24h-4.519v5.648H925.729z"/>
	<path d="M944.681,955.166h-8.332l-2.09,5.084h-2.909l8.191-19.771h1.977l8.191,19.771h-2.938L944.681,955.166z M937.479,952.482
		h6.101l-3.079-7.372L937.479,952.482z"/>
	<path d="M955.471,950.929v9.321h-2.824v-19.771h6.92c0.904,0,1.657,0.099,2.259,0.297c0.603,0.197,1.13,0.484,1.582,0.861
		c0.603,0.49,1.078,1.083,1.426,1.779c0.348,0.697,0.522,1.46,0.522,2.288s-0.174,1.591-0.522,2.288
		c-0.349,0.696-0.824,1.289-1.426,1.779c-0.32,0.264-0.664,0.479-1.031,0.649c-0.367,0.169-0.795,0.302-1.285,0.396l7.09,9.434
		h-3.418l-7.004-9.321H955.471z M959.425,948.246c0.64,0,1.139-0.066,1.497-0.198c0.357-0.131,0.65-0.311,0.876-0.536
		c0.489-0.489,0.734-1.092,0.734-1.808c0-0.357-0.066-0.692-0.198-1.003c-0.132-0.311-0.311-0.579-0.537-0.805
		c-0.226-0.227-0.519-0.405-0.876-0.537c-0.358-0.131-0.857-0.197-1.497-0.197h-3.955v5.084H959.425z"/>
	<path d="M980.75,940.479h2.824v19.771h-2.824V940.479z"/>
	<path d="M987.529,950.364c0-1.431,0.254-2.763,0.763-3.997c0.508-1.232,1.209-2.306,2.104-3.22c0.894-0.913,1.949-1.633,3.164-2.16
		c1.214-0.527,2.537-0.791,3.968-0.791c1.412,0,2.754,0.269,4.025,0.805c1.271,0.537,2.339,1.285,3.206,2.245l-1.836,1.836
		c-0.622-0.621-1.398-1.144-2.331-1.567s-1.954-0.636-3.064-0.636c-1.017,0-1.958,0.188-2.824,0.565
		c-0.867,0.377-1.625,0.899-2.274,1.567c-0.65,0.669-1.158,1.46-1.525,2.373s-0.551,1.906-0.551,2.979
		c0,1.111,0.188,2.128,0.565,3.051c0.376,0.923,0.899,1.713,1.568,2.372c0.668,0.659,1.455,1.168,2.358,1.525
		c0.904,0.358,1.883,0.537,2.938,0.537c0.659,0,1.275-0.085,1.85-0.255c0.574-0.169,1.102-0.386,1.582-0.649s0.913-0.56,1.299-0.89
		c0.386-0.329,0.72-0.654,1.002-0.975l1.949,1.779c-0.434,0.547-0.932,1.045-1.497,1.497s-1.177,0.838-1.836,1.158
		c-0.659,0.32-1.361,0.569-2.104,0.748s-1.492,0.269-2.245,0.269c-1.469,0-2.83-0.254-4.082-0.763
		c-1.252-0.508-2.335-1.214-3.248-2.118c-0.914-0.903-1.629-1.977-2.147-3.22S987.529,951.833,987.529,950.364z"/>
	<path d="M1008.6,940.479h2.824v19.771h-2.824V940.479z"/>
	<path d="M1026.611,940.313h3.845v16.519h8.401v3.418h-12.246V940.313z"/>
	<path d="M1045.778,943.731v4.13h6.408v3.417h-6.408v5.554h8.401v3.418h-12.246v-19.937h11.961v3.418H1045.778z"/>
	<path d="M1058.423,955.181c0.626,0.551,1.362,1.011,2.207,1.381s1.723,0.556,2.635,0.556c0.379,0,0.754-0.052,1.125-0.156
		c0.37-0.104,0.698-0.266,0.982-0.484c0.285-0.218,0.517-0.489,0.698-0.812c0.18-0.323,0.271-0.702,0.271-1.14
		c0-0.417-0.109-0.773-0.328-1.068c-0.218-0.294-0.503-0.56-0.854-0.797c-0.352-0.237-0.76-0.451-1.225-0.641
		s-0.954-0.38-1.466-0.57c-0.437-0.151-0.864-0.317-1.282-0.498c-0.418-0.181-0.817-0.385-1.196-0.612
		c-0.797-0.456-1.458-1.054-1.979-1.794c-0.522-0.741-0.783-1.681-0.783-2.82c0-0.911,0.18-1.718,0.542-2.42
		c0.36-0.703,0.84-1.296,1.438-1.78s1.296-0.854,2.093-1.111c0.797-0.256,1.633-0.384,2.506-0.384c1.025,0,2.026,0.166,3.005,0.498
		c0.978,0.332,1.894,0.831,2.748,1.495l-1.908,2.706c-0.532-0.38-1.111-0.688-1.737-0.926s-1.292-0.356-1.994-0.356
		c-0.968,0-1.685,0.219-2.15,0.655c-0.466,0.438-0.698,0.931-0.698,1.481c0,0.398,0.118,0.735,0.356,1.011
		c0.237,0.275,0.55,0.522,0.939,0.74c0.389,0.219,0.835,0.423,1.339,0.612c0.503,0.19,1.021,0.399,1.552,0.627
		c0.342,0.152,0.679,0.304,1.011,0.455c0.332,0.152,0.66,0.323,0.983,0.513c0.816,0.476,1.509,1.106,2.079,1.895
		c0.569,0.788,0.854,1.809,0.854,3.062c0,0.893-0.176,1.704-0.527,2.435c-0.352,0.731-0.831,1.367-1.438,1.908
		c-0.608,0.542-1.329,0.959-2.165,1.254c-0.836,0.294-1.747,0.441-2.734,0.441c-2.772,0-5.136-0.979-7.091-2.934L1058.423,955.181z"
		/>
	<path d="M1084.132,955.181c0.626,0.551,1.362,1.011,2.207,1.381s1.724,0.556,2.635,0.556c0.38,0,0.755-0.052,1.125-0.156
		s0.698-0.266,0.982-0.484c0.284-0.218,0.517-0.489,0.698-0.812c0.18-0.323,0.27-0.702,0.27-1.14c0-0.417-0.109-0.773-0.327-1.068
		c-0.218-0.294-0.503-0.56-0.854-0.797s-0.76-0.451-1.225-0.641s-0.954-0.38-1.467-0.57c-0.437-0.151-0.863-0.317-1.281-0.498
		s-0.816-0.385-1.196-0.612c-0.798-0.456-1.458-1.054-1.979-1.794c-0.522-0.741-0.783-1.681-0.783-2.82
		c0-0.911,0.18-1.718,0.541-2.42c0.361-0.703,0.84-1.296,1.438-1.78s1.296-0.854,2.093-1.111c0.798-0.256,1.633-0.384,2.507-0.384
		c1.025,0,2.026,0.166,3.005,0.498c0.978,0.332,1.894,0.831,2.748,1.495l-1.908,2.706c-0.531-0.38-1.111-0.688-1.737-0.926
		s-1.292-0.356-1.993-0.356c-0.969,0-1.686,0.219-2.15,0.655c-0.466,0.438-0.697,0.931-0.697,1.481c0,0.398,0.117,0.735,0.355,1.011
		c0.236,0.275,0.551,0.522,0.939,0.74c0.389,0.219,0.836,0.423,1.339,0.612c0.503,0.19,1.021,0.399,1.552,0.627
		c0.342,0.152,0.68,0.304,1.012,0.455c0.332,0.152,0.659,0.323,0.982,0.513c0.816,0.476,1.51,1.106,2.079,1.895
		s0.854,1.809,0.854,3.062c0,0.893-0.176,1.704-0.527,2.435c-0.352,0.731-0.83,1.367-1.438,1.908
		c-0.608,0.542-1.33,0.959-2.165,1.254c-0.836,0.294-1.747,0.441-2.734,0.441c-2.772,0-5.136-0.979-7.091-2.934L1084.132,955.181z"
		/>
	<path d="M1118.508,950.282c0,1.48-0.262,2.848-0.783,4.101c-0.523,1.253-1.239,2.336-2.15,3.247
		c-0.912,0.911-1.984,1.623-3.219,2.136s-2.562,0.77-3.987,0.77c-1.424,0-2.753-0.257-3.987-0.77s-2.307-1.225-3.218-2.136
		s-1.628-1.994-2.15-3.247s-0.783-2.62-0.783-4.101c0-1.481,0.261-2.849,0.783-4.102s1.239-2.335,2.15-3.247
		c0.911-0.911,1.983-1.623,3.218-2.136s2.563-0.769,3.987-0.769c1.425,0,2.753,0.256,3.987,0.769s2.307,1.225,3.219,2.136
		c0.911,0.912,1.627,1.994,2.15,3.247C1118.246,947.434,1118.508,948.801,1118.508,950.282z M1102.074,950.282
		c0,0.949,0.156,1.837,0.47,2.662c0.313,0.826,0.745,1.548,1.296,2.165s1.215,1.106,1.994,1.467c0.777,0.36,1.623,0.541,2.534,0.541
		s1.757-0.181,2.535-0.541s1.442-0.85,1.993-1.467s0.982-1.339,1.296-2.165c0.313-0.825,0.47-1.713,0.47-2.662
		c0-0.931-0.156-1.813-0.47-2.649c-0.313-0.835-0.745-1.562-1.296-2.179c-0.551-0.616-1.215-1.105-1.993-1.467
		c-0.778-0.36-1.624-0.541-2.535-0.541s-1.757,0.181-2.534,0.541c-0.779,0.361-1.443,0.851-1.994,1.467
		c-0.551,0.617-0.982,1.344-1.296,2.179C1102.23,948.469,1102.074,949.352,1102.074,950.282z"/>
	<path d="M1135.766,945.811c0,1.291-0.352,2.416-1.053,3.375c-0.703,0.959-1.691,1.628-2.963,2.008l6.864,9.057H1134l-6.607-8.829
		h-1.452v8.829h-3.845v-19.937h7.604c1.197,0,2.203,0.204,3.02,0.612c0.816,0.409,1.471,0.945,1.965,1.609
		c0.342,0.456,0.607,0.964,0.798,1.523C1135.671,944.619,1135.766,945.203,1135.766,945.811z M1129.102,948.146
		c0.646,0,1.139-0.071,1.48-0.213c0.342-0.143,0.617-0.337,0.826-0.584c0.342-0.437,0.514-0.921,0.514-1.453
		c0-0.513-0.172-0.986-0.514-1.424c-0.209-0.246-0.484-0.441-0.826-0.584c-0.342-0.142-0.835-0.213-1.48-0.213h-3.161v4.471
		H1129.102z"/>
	<path d="M1152.854,940.313v3.418h-5.269v16.519h-3.845v-16.519h-5.269v-3.418H1152.854z"/>
	<path d="M1155.902,940.313h3.844v19.937h-3.844V940.313z"/>
	<path d="M1168.375,943.731v4.13h6.408v3.417h-6.408v5.554h8.402v3.418h-12.246v-19.937h11.961v3.418H1168.375z"/>
	<path d="M1181.021,955.181c0.626,0.551,1.362,1.011,2.207,1.381s1.724,0.556,2.635,0.556c0.38,0,0.755-0.052,1.125-0.156
		s0.698-0.266,0.982-0.484c0.284-0.218,0.517-0.489,0.698-0.812c0.18-0.323,0.27-0.702,0.27-1.14c0-0.417-0.109-0.773-0.327-1.068
		c-0.218-0.294-0.503-0.56-0.854-0.797s-0.76-0.451-1.225-0.641s-0.954-0.38-1.467-0.57c-0.437-0.151-0.863-0.317-1.281-0.498
		s-0.816-0.385-1.196-0.612c-0.798-0.456-1.458-1.054-1.979-1.794c-0.522-0.741-0.783-1.681-0.783-2.82
		c0-0.911,0.18-1.718,0.541-2.42c0.361-0.703,0.84-1.296,1.438-1.78s1.296-0.854,2.093-1.111c0.798-0.256,1.633-0.384,2.507-0.384
		c1.025,0,2.026,0.166,3.005,0.498c0.978,0.332,1.894,0.831,2.748,1.495l-1.908,2.706c-0.531-0.38-1.111-0.688-1.737-0.926
		s-1.292-0.356-1.993-0.356c-0.969,0-1.686,0.219-2.15,0.655c-0.466,0.438-0.697,0.931-0.697,1.481c0,0.398,0.117,0.735,0.355,1.011
		c0.236,0.275,0.551,0.522,0.939,0.74c0.389,0.219,0.836,0.423,1.339,0.612c0.503,0.19,1.021,0.399,1.552,0.627
		c0.342,0.152,0.68,0.304,1.012,0.455c0.332,0.152,0.659,0.323,0.982,0.513c0.816,0.476,1.51,1.106,2.079,1.895
		s0.854,1.809,0.854,3.062c0,0.893-0.176,1.704-0.527,2.435c-0.352,0.731-0.83,1.367-1.438,1.908
		c-0.608,0.542-1.33,0.959-2.165,1.254c-0.836,0.294-1.747,0.441-2.734,0.441c-2.772,0-5.136-0.979-7.091-2.934L1181.021,955.181z"
		/>
	<path d="M1206.818,957.28c0-0.949,0.34-1.75,1.018-2.4c0.678-0.651,1.492-0.977,2.441-0.977s1.763,0.325,2.441,0.977
		c0.678,0.65,1.018,1.451,1.018,2.4s-0.34,1.749-1.018,2.4c-0.679,0.65-1.492,0.977-2.441,0.977s-1.764-0.326-2.441-0.977
		C1207.158,959.029,1206.818,958.229,1206.818,957.28z"/>
	<path d="M1219.838,957.28c0-0.949,0.339-1.75,1.018-2.4c0.678-0.651,1.491-0.977,2.441-0.977c0.949,0,1.762,0.325,2.441,0.977
		c0.677,0.65,1.017,1.451,1.017,2.4s-0.34,1.749-1.017,2.4c-0.68,0.65-1.492,0.977-2.441,0.977c-0.95,0-1.764-0.326-2.441-0.977
		C1220.177,959.029,1219.838,958.229,1219.838,957.28z"/>
	<path d="M1232.857,957.28c0-0.949,0.338-1.75,1.018-2.4c0.677-0.651,1.49-0.977,2.44-0.977c0.949,0,1.763,0.325,2.441,0.977
		c0.677,0.65,1.017,1.451,1.017,2.4s-0.34,1.749-1.017,2.4c-0.679,0.65-1.492,0.977-2.441,0.977c-0.95,0-1.764-0.326-2.44-0.977
		C1233.195,959.029,1232.857,958.229,1232.857,957.28z"/>
</g>
<g>
	<path d="M1205.068,839.051c-9.287,0-16.816-7.53-16.816-16.816c0-9.289,7.529-16.816,16.816-16.816h18.111
		c9.287,0,16.816,7.528,16.816,16.816c0,9.286-7.529,16.816-16.816,16.816H1205.068z"/>
	<polygon fill="#2B2523" points="1193.244,811.885 1103.736,806.71 1103.307,838.188 1191.949,832.582 	"/>
	<path fill="#2B2523" d="M1224.473,793.775c-3.336,0-6.037-2.509-6.037-5.605c0-3.096,2.701-5.606,6.037-5.606
		c3.334,0,6.035,2.51,6.035,5.606C1230.508,791.266,1227.807,793.775,1224.473,793.775"/>
	<path fill="#2B2523" d="M1203.344,793.775c-3.336,0-6.037-2.509-6.037-5.605c0-3.096,2.701-5.606,6.037-5.606
		c3.334,0,6.037,2.51,6.037,5.606C1209.381,791.266,1206.678,793.775,1203.344,793.775"/>
	<path fill="#2B2523" d="M1224.473,856.73c-3.336,0-6.037-2.51-6.037-5.606c0-3.096,2.701-5.606,6.037-5.606
		c3.334,0,6.035,2.51,6.035,5.606C1230.508,854.221,1227.807,856.73,1224.473,856.73"/>
	<path fill="#2B2523" d="M1203.344,856.73c-3.336,0-6.037-2.51-6.037-5.606c0-3.096,2.701-5.606,6.037-5.606
		c3.334,0,6.037,2.51,6.037,5.606C1209.381,854.221,1206.678,856.73,1203.344,856.73"/>
	<path d="M904.522,823.959c1.12-33.903,24.293-65.973,56.488-65.973c47.72,0,47.001,20.267,61.229,20.698
		c14.231,0.43,23-8.05,50.02-6.9c12.545,0.536,34.497,18.541,35.358,51.744c0.863,33.203-23.758,45.463-36.651,47.863
		c-20.842,3.881-30.533-6.037-48.727-6.037c-19.833,0-8.91,21.129-60.797,21.129C928.816,886.482,903.518,854.429,904.522,823.959"
		/>
	<path fill="#FFFFFF" d="M1009.304,844.366c-13.134,0-23.783-10.102-23.783-22.563c0-12.459,10.649-22.563,23.783-22.563
		c13.135,0,23.783,10.104,23.783,22.563C1033.087,834.264,1022.439,844.366,1009.304,844.366"/>
	
		<line fill="none" stroke="#FFFFFF" stroke-width="5" stroke-linecap="round" stroke-linejoin="round" stroke-miterlimit="10" x1="1074.416" y1="802.399" x2="1074.416" y2="841.207"/>
	
		<line fill="none" stroke="#FFFFFF" stroke-width="5" stroke-linecap="round" stroke-linejoin="round" stroke-miterlimit="10" x1="1055.875" y1="802.399" x2="1055.875" y2="841.207"/>
	
		<line fill="none" stroke="#FFFFFF" stroke-width="5" stroke-linecap="round" stroke-linejoin="round" stroke-miterlimit="10" x1="937.726" y1="802.399" x2="937.726" y2="841.207"/>
</g>
</svg>
