<?xml version="1.0" encoding="utf-8"?>
<!-- Generator: Adobe Illustrator 15.0.0, SVG Export Plug-In . SVG Version: 6.00 Build 0)  -->
<!DOCTYPE svg PUBLIC "-//W3C//DTD SVG 1.0//EN" "http://www.w3.org/TR/2001/REC-SVG-20010904/DTD/svg10.dtd">
<svg version="1.0" id="Calque_1" xmlns="http://www.w3.org/2000/svg" xmlns:xlink="http://www.w3.org/1999/xlink" x="0px" y="0px"
	 width="2160px" height="1728px" viewBox="0 0 2160 1728" enable-background="new 0 0 2160 1728" xml:space="preserve">
<g>
	<path d="M1106.182,1028.999v-19.771h6.355c1.582,0,2.904,0.16,3.969,0.48c1.062,0.32,2,0.781,2.811,1.384
		c1.223,0.903,2.188,2.053,2.895,3.446s1.059,2.919,1.059,4.575c0,1.657-0.348,3.183-1.045,4.576
		c-0.696,1.394-1.656,2.542-2.881,3.445c-0.81,0.603-1.751,1.064-2.824,1.384c-1.073,0.32-2.4,0.48-3.982,0.48H1106.182z
		 M1120.445,1019.113c0-1.11-0.211-2.146-0.635-3.106c-0.424-0.961-1.013-1.771-1.766-2.43c-0.621-0.546-1.37-0.96-2.246-1.242
		c-0.875-0.283-2.01-0.424-3.402-0.424h-3.391v14.404h3.391c1.393,0,2.527-0.141,3.402-0.424c0.876-0.282,1.625-0.696,2.246-1.242
		c0.753-0.659,1.342-1.469,1.766-2.429C1120.234,1021.26,1120.445,1020.225,1120.445,1019.113z"/>
	<path d="M1134.08,1000.754l-4.842,10.491h-2.623l3.026-10.491H1134.08z"/>
	<path d="M1148.528,1023.915h-8.332l-2.091,5.084h-2.908l8.191-19.771h1.977l8.191,19.771h-2.938L1148.528,1023.915z
		 M1141.326,1021.231h6.101l-3.079-7.372L1141.326,1021.231z"/>
	<path d="M1163.753,1029.281c-1.224,0-2.363-0.23-3.417-0.691c-1.055-0.462-1.959-1.097-2.712-1.907
		c-0.641-0.696-1.144-1.516-1.511-2.457s-0.551-2.08-0.551-3.418v-11.58h2.824v11.722c0,0.941,0.107,1.719,0.324,2.33
		c0.217,0.612,0.523,1.135,0.918,1.567c0.49,0.547,1.088,0.975,1.794,1.285s1.483,0.467,2.33,0.467c0.848,0,1.624-0.156,2.331-0.467
		c0.705-0.311,1.303-0.738,1.793-1.285c0.396-0.433,0.701-0.955,0.918-1.567c0.217-0.611,0.324-1.389,0.324-2.33v-11.722h2.824
		v11.58c0,1.338-0.184,2.477-0.551,3.418s-0.871,1.761-1.51,2.457c-0.754,0.811-1.658,1.445-2.712,1.907
		C1166.115,1029.051,1164.977,1029.281,1163.753,1029.281z"/>
	<path d="M1175.021,1009.228h13.559v2.684h-5.367v17.088h-2.824v-17.088h-5.367V1009.228z"/>
	<path d="M1194.736,1019.678v9.321h-2.824v-19.771h6.92c0.904,0,1.657,0.099,2.26,0.297c0.603,0.197,1.13,0.484,1.582,0.861
		c0.603,0.49,1.078,1.083,1.426,1.779c0.349,0.697,0.523,1.46,0.523,2.288s-0.175,1.591-0.523,2.288
		c-0.348,0.696-0.823,1.289-1.426,1.779c-0.32,0.264-0.664,0.479-1.031,0.649c-0.367,0.169-0.795,0.302-1.285,0.396l7.09,9.434
		h-3.418l-7.004-9.321H1194.736z M1198.691,1016.995c0.64,0,1.139-0.066,1.496-0.198c0.357-0.131,0.65-0.311,0.877-0.536
		c0.488-0.489,0.734-1.092,0.734-1.808c0-0.357-0.066-0.692-0.198-1.003s-0.312-0.579-0.536-0.805
		c-0.227-0.227-0.52-0.405-0.877-0.537c-0.357-0.131-0.856-0.197-1.496-0.197h-3.955v5.084H1198.691z"/>
	<path d="M1219.169,1016.995v2.683h-6.497v6.638h8.756v2.684h-11.58v-19.771h11.299v2.684h-8.475v5.084H1219.169z"/>
	<path d="M1225.721,1024.254c0.283,0.302,0.584,0.593,0.904,0.876c0.32,0.282,0.668,0.532,1.045,0.748
		c0.377,0.217,0.791,0.391,1.242,0.522c0.453,0.132,0.951,0.198,1.498,0.198c0.395,0,0.805-0.062,1.229-0.184
		c0.424-0.123,0.805-0.312,1.144-0.565s0.616-0.564,0.833-0.932s0.325-0.796,0.325-1.285c0-0.509-0.113-0.941-0.339-1.3
		c-0.227-0.357-0.527-0.678-0.904-0.96s-0.805-0.537-1.285-0.763s-0.984-0.442-1.511-0.649c-0.489-0.207-0.975-0.419-1.454-0.636
		c-0.48-0.216-0.938-0.456-1.371-0.721c-0.715-0.47-1.303-1.063-1.765-1.779c-0.462-0.715-0.692-1.591-0.692-2.627
		c0-0.715,0.15-1.393,0.452-2.033c0.302-0.64,0.72-1.2,1.257-1.681s1.168-0.856,1.893-1.13c0.725-0.272,1.521-0.409,2.387-0.409
		c0.621,0,1.201,0.062,1.737,0.184s1.026,0.282,1.469,0.48c0.442,0.197,0.837,0.409,1.187,0.635
		c0.348,0.227,0.654,0.452,0.918,0.678l-1.667,2.062c-1.073-0.904-2.251-1.356-3.53-1.356c-0.414,0-0.814,0.057-1.201,0.17
		c-0.386,0.113-0.734,0.282-1.045,0.509c-0.311,0.226-0.561,0.504-0.748,0.833c-0.188,0.329-0.283,0.711-0.283,1.144
		c0,0.396,0.109,0.749,0.326,1.06c0.215,0.311,0.503,0.593,0.861,0.848c0.357,0.254,0.767,0.489,1.229,0.706
		c0.461,0.216,0.945,0.428,1.454,0.635c0.489,0.208,0.983,0.424,1.483,0.65c0.498,0.226,0.965,0.479,1.397,0.762
		c0.339,0.227,0.659,0.485,0.96,0.777c0.302,0.292,0.574,0.626,0.82,1.003c0.244,0.377,0.438,0.8,0.578,1.271
		c0.142,0.471,0.212,0.988,0.212,1.554c0,0.848-0.165,1.624-0.494,2.33s-0.776,1.313-1.342,1.822
		c-0.564,0.508-1.229,0.899-1.991,1.172s-1.577,0.409-2.443,0.409c-1.299,0-2.541-0.282-3.729-0.847
		c-1.186-0.565-2.203-1.385-3.05-2.458L1225.721,1024.254z"/>
	<path d="M1251.081,1023.93c0.626,0.551,1.362,1.011,2.207,1.381s1.724,0.556,2.635,0.556c0.38,0,0.755-0.052,1.125-0.156
		s0.698-0.266,0.982-0.484c0.284-0.218,0.517-0.489,0.698-0.812c0.18-0.323,0.27-0.702,0.27-1.14c0-0.417-0.109-0.773-0.327-1.068
		c-0.218-0.294-0.503-0.56-0.854-0.797s-0.76-0.451-1.225-0.641s-0.954-0.38-1.467-0.57c-0.437-0.151-0.863-0.317-1.281-0.498
		s-0.816-0.385-1.196-0.612c-0.798-0.456-1.458-1.054-1.979-1.794c-0.522-0.741-0.783-1.681-0.783-2.82
		c0-0.911,0.18-1.718,0.541-2.42c0.361-0.703,0.84-1.296,1.438-1.78s1.296-0.854,2.093-1.111c0.798-0.256,1.633-0.384,2.507-0.384
		c1.025,0,2.026,0.166,3.005,0.498c0.978,0.332,1.894,0.831,2.748,1.495l-1.908,2.706c-0.531-0.38-1.111-0.688-1.737-0.926
		s-1.292-0.356-1.993-0.356c-0.969,0-1.686,0.219-2.15,0.655c-0.466,0.438-0.697,0.931-0.697,1.481c0,0.398,0.117,0.735,0.355,1.011
		c0.236,0.275,0.551,0.522,0.939,0.74c0.389,0.219,0.836,0.423,1.339,0.612c0.503,0.19,1.021,0.399,1.552,0.627
		c0.342,0.152,0.68,0.304,1.012,0.455c0.332,0.152,0.659,0.323,0.982,0.513c0.816,0.476,1.51,1.106,2.079,1.895
		s0.854,1.809,0.854,3.062c0,0.893-0.176,1.704-0.527,2.435c-0.352,0.731-0.83,1.367-1.438,1.908
		c-0.608,0.542-1.33,0.959-2.165,1.254c-0.836,0.294-1.747,0.441-2.734,0.441c-2.772,0-5.136-0.979-7.091-2.934L1251.081,1023.93z"
		/>
	<path d="M1278.82,1009.062v3.418h-5.269v16.519h-3.845v-16.519h-5.269v-3.418H1278.82z"/>
	<path d="M1277.796,1028.999l8.259-19.937h2.849l8.259,19.937h-4.072l-1.822-4.414h-7.69l-1.822,4.414H1277.796z M1285.002,1021.167
		h4.869l-2.393-6.123L1285.002,1021.167z"/>
	<path d="M1316.956,1028.999h-2.849l-10.594-12.93v12.93h-3.788v-19.937h2.848l10.595,12.931v-12.931h3.788V1028.999z"/>
	<path d="M1328.576,1009.062c1.594,0,2.934,0.162,4.016,0.484c1.082,0.323,2.031,0.788,2.848,1.396
		c1.234,0.911,2.202,2.07,2.905,3.475c0.702,1.405,1.054,2.943,1.054,4.614s-0.352,3.209-1.054,4.613
		c-0.703,1.405-1.671,2.563-2.905,3.475c-0.816,0.608-1.766,1.073-2.848,1.396c-1.082,0.323-2.422,0.484-4.016,0.484h-6.836v-19.937
		H1328.576z M1335.553,1019.031c0-0.836-0.127-1.624-0.384-2.364s-0.612-1.396-1.067-1.965c-0.552-0.702-1.24-1.248-2.065-1.638
		c-0.826-0.389-1.837-0.584-3.033-0.584h-3.417v13.101h3.417c1.196,0,2.207-0.194,3.033-0.584c0.825-0.389,1.514-0.935,2.065-1.637
		c0.455-0.57,0.811-1.225,1.067-1.966C1335.426,1020.654,1335.553,1019.866,1335.553,1019.031z"/>
	<path d="M1339.825,1028.999l8.259-19.937h2.849l8.259,19.937h-4.072l-1.822-4.414h-7.69l-1.822,4.414H1339.825z M1347.031,1021.167
		h4.869l-2.393-6.123L1347.031,1021.167z"/>
	<path d="M1375.426,1014.56c0,1.291-0.352,2.416-1.055,3.375c-0.702,0.959-1.689,1.628-2.961,2.008l6.863,9.057h-4.614l-6.607-8.829
		h-1.452v8.829h-3.845v-19.937h7.604c1.195,0,2.201,0.204,3.019,0.612c0.815,0.409,1.472,0.945,1.965,1.609
		c0.342,0.456,0.607,0.964,0.798,1.523C1375.33,1013.368,1375.426,1013.952,1375.426,1014.56z M1368.761,1016.895
		c0.646,0,1.14-0.071,1.481-0.213c0.342-0.143,0.616-0.337,0.826-0.584c0.342-0.437,0.512-0.921,0.512-1.453
		c0-0.513-0.17-0.986-0.512-1.424c-0.21-0.246-0.484-0.441-0.826-0.584c-0.342-0.142-0.836-0.213-1.481-0.213h-3.161v4.471H1368.761
		z"/>
	<path d="M1387.158,1009.062c1.596,0,2.934,0.162,4.016,0.484c1.083,0.323,2.032,0.788,2.849,1.396
		c1.233,0.911,2.202,2.07,2.905,3.475c0.702,1.405,1.054,2.943,1.054,4.614s-0.352,3.209-1.054,4.613
		c-0.703,1.405-1.672,2.563-2.905,3.475c-0.816,0.608-1.766,1.073-2.849,1.396c-1.082,0.323-2.42,0.484-4.016,0.484h-6.834v-19.937
		H1387.158z M1394.137,1019.031c0-0.836-0.129-1.624-0.385-2.364s-0.612-1.396-1.068-1.965c-0.551-0.702-1.238-1.248-2.064-1.638
		c-0.826-0.389-1.837-0.584-3.033-0.584h-3.418v13.101h3.418c1.196,0,2.207-0.194,3.033-0.584c0.826-0.389,1.514-0.935,2.064-1.637
		c0.456-0.57,0.812-1.225,1.068-1.966C1394.008,1020.654,1394.137,1019.866,1394.137,1019.031z"/>
	<path d="M1401.939,1023.93c0.627,0.551,1.363,1.011,2.207,1.381c0.846,0.37,1.724,0.556,2.635,0.556
		c0.38,0,0.755-0.052,1.125-0.156c0.371-0.104,0.698-0.266,0.982-0.484c0.285-0.218,0.518-0.489,0.698-0.812
		c0.181-0.323,0.271-0.702,0.271-1.14c0-0.417-0.109-0.773-0.328-1.068c-0.218-0.294-0.502-0.56-0.854-0.797
		s-0.76-0.451-1.225-0.641c-0.466-0.189-0.955-0.38-1.467-0.57c-0.438-0.151-0.864-0.317-1.281-0.498
		c-0.418-0.181-0.817-0.385-1.197-0.612c-0.797-0.456-1.457-1.054-1.979-1.794c-0.523-0.741-0.783-1.681-0.783-2.82
		c0-0.911,0.18-1.718,0.541-2.42c0.36-0.703,0.84-1.296,1.438-1.78c0.599-0.484,1.297-0.854,2.094-1.111
		c0.797-0.256,1.633-0.384,2.506-0.384c1.025,0,2.027,0.166,3.006,0.498c0.977,0.332,1.893,0.831,2.748,1.495l-1.908,2.706
		c-0.532-0.38-1.111-0.688-1.738-0.926c-0.626-0.237-1.291-0.356-1.993-0.356c-0.968,0-1.685,0.219-2.149,0.655
		c-0.467,0.438-0.698,0.931-0.698,1.481c0,0.398,0.118,0.735,0.356,1.011c0.236,0.275,0.55,0.522,0.939,0.74
		c0.389,0.219,0.835,0.423,1.338,0.612c0.504,0.19,1.021,0.399,1.553,0.627c0.342,0.152,0.679,0.304,1.011,0.455
		c0.332,0.152,0.659,0.323,0.983,0.513c0.815,0.476,1.509,1.106,2.078,1.895c0.57,0.788,0.854,1.809,0.854,3.062
		c0,0.893-0.176,1.704-0.526,2.435c-0.352,0.731-0.831,1.367-1.438,1.908c-0.608,0.542-1.329,0.959-2.165,1.254
		c-0.836,0.294-1.746,0.441-2.734,0.441c-2.771,0-5.136-0.979-7.091-2.934L1401.939,1023.93z"/>
</g>
<path d="M1305.566,892.949c0,0-4.838,5.227-6.576,8.889c-2.262,4.768-4.117,15.562-5.48,19.059
	c-1.363,3.492-4.543,9.027-4.543,9.027s-2.293,2.578-4.324,4.283c-2.039,1.705-6.926,3.855-11.021,6.938
	c-4.098,3.082-13.264,8.752-8.422,13.688c4.846,4.938,24.809,3.223,24.809,3.223s23.777-4.822,29.299-8.887
	c5.518-4.053,5.145-13.361,6.26-17.688c1.109-4.312,3.668-15.152,7.338-17.895c3.668-2.744,10.533-7.881,10.533-7.881l13.734,18.74
	l6.203-5.193l-7.893-24.559c0.572-7.787-4.932-16.82-8.652-20.979c-3.732-4.164-4.459-3.775-6.533-6.115
	c0,0-3.57,6.459-17.271,14.207C1312.049,888.016,1305.566,892.949,1305.566,892.949z M1308.186,919.01
	c-0.859-0.078-9.434-1.633-9.82-3.965c-0.389-2.324,3.518-14.5,7.184-16.854c0,0,1.715,12.832,2.033,14.389
	C1307.891,914.158,1309.016,919.115,1308.186,919.01z M1325.123,903.771c-0.32,1.889-9.375,17.006-11.412,15.008
	c-2.041-2.01-4.936-21.738-3.91-23.693c1.004-1.949,11.916-8.035,11.916-8.035s-0.244,6.434,0.895,9.543
	C1323.74,899.68,1325.428,901.891,1325.123,903.771z"/>
<path d="M1155.986,869.9c0,0-19.756,19.758-19.191,27.66s12.983,20.885,12.983,20.885l6.208-2.258c0,0,4.517-2.822,9.032,11.854
	c4.515,14.676,6.773,18.629,16.369,24.273s49.966,4.244,58.704,0c6.588-3.197-3.387-12.42-12.699-16.936
	c-9.314-4.514-14.959-7.588-18.346-13.736c-3.387-6.146-2.822-24.082-9.596-24.646s-19.192,1.129-19.192,1.129
	c-0.564,3.953,5.08,23.145-0.564,20.885c-5.645-2.258-17.498-19.975-19.756-30.025S1162.196,871.596,1155.986,869.9z"/>
</svg>
