<?xml version="1.0" encoding="utf-8"?>
<!-- Generator: Adobe Illustrator 15.0.0, SVG Export Plug-In . SVG Version: 6.00 Build 0)  -->
<!DOCTYPE svg PUBLIC "-//W3C//DTD SVG 1.1//EN" "http://www.w3.org/Graphics/SVG/1.1/DTD/svg11.dtd">
<svg version="1.1" xmlns="http://www.w3.org/2000/svg" xmlns:xlink="http://www.w3.org/1999/xlink" x="0px" y="0px" width="5000px"
	 height="5000px" viewBox="0 0 5000 5000" enable-background="new 0 0 5000 5000" xml:space="preserve">
<g id="lasso">
	<g>
		<path fill="#FFFFFF" d="M1265.303,2885.486c0,0,0.792,0.488,2.35,1.449c1.571,0.948,3.931,2.342,7.07,4.139
			c6.28,3.588,15.696,8.762,28.223,15.025c25.02,12.57,62.504,29.564,111.688,47.204c49.181,17.584,110.073,35.784,181.223,50.794
			c35.564,7.522,73.68,14.216,114.069,19.772c40.389,5.533,83.067,9.864,127.69,12.744c5.604,0.354,11.237,0.71,16.899,1.068
			c5.663,0.364,11.355,0.726,17.049,1.005c5.701,0.302,11.43,0.605,17.188,0.91c2.879,0.15,5.765,0.301,8.657,0.451
			c2.896,0.123,5.798,0.246,8.709,0.367c5.82,0.25,11.667,0.502,17.54,0.754c5.874,0.274,11.775,0.401,17.702,0.611
			c5.926,0.174,11.88,0.418,17.859,0.537c5.978,0.117,11.982,0.234,18.012,0.354c24.114,0.316,48.637,0.488,73.483-0.216
			c24.845-0.633,50.035-1.86,75.396-4.257c12.694-1.119,25.379-2.793,38.094-4.665c12.666-2.059,25.345-4.448,37.824-7.65
			c3.088-0.868,6.185-1.738,9.283-2.609c3.08-0.912,6.097-1.972,9.159-2.95c3.032-1.034,5.971-2.251,8.973-3.366
			c1.474-0.601,2.9-1.28,4.355-1.916l2.175-0.968c0.73-0.316,1.456-0.641,2.14-1.021c2.769-1.473,5.642-2.831,8.227-4.53
			l1.993-1.213c0.328-0.204,0.672-0.396,0.993-0.611l0.929-0.672l3.737-2.68c4.741-3.779,8.888-8.099,11.739-12.981
			c0.424-0.584,0.662-1.237,0.977-1.86l0.92-1.887c0.248-0.646,0.449-1.308,0.684-1.959c0.209-0.658,0.517-1.293,0.618-1.978
			c0.281-1.351,0.671-2.684,0.742-4.078l0.117-1.036c0.043-0.507,0.091-0.446,0.09-0.942l0.072-2.546
			c0.045-0.899-0.001-1.576-0.019-2.316c-0.028-0.737-0.018-1.453-0.07-2.209c-0.154-1.525-0.201-3.07-0.468-4.578l-0.334-2.275
			l-0.473-2.249l-0.233-1.127l-0.31-1.107l-0.613-2.22c-1.829-5.867-4.651-11.465-8.234-16.671
			c-3.584-5.209-7.936-10.014-12.765-14.417c-4.831-4.406-10.131-8.422-15.684-12.154c-5.578-3.709-11.459-7.06-17.456-10.26
			c-12.092-6.254-24.816-11.606-37.855-16.35c-13.045-4.742-26.419-8.867-39.984-12.557c-3.381-0.957-6.794-1.825-10.208-2.697
			c-3.411-0.885-6.83-1.758-10.272-2.559c-3.438-0.81-6.874-1.672-10.322-2.441c-3.447-0.773-6.881-1.514-10.359-2.215
			c-27.759-5.607-56.205-9.223-84.887-11.829c-14.349-1.275-28.77-2.281-43.247-3.011c-14.479-0.711-29.012-1.158-43.583-1.344
			c-29.141-0.299-58.458,0.401-87.74,2.782c-14.636,1.195-29.271,2.772-43.804,5.05c-14.52,2.289-28.995,5.153-43.014,9.387
			c-6.996,2.131-13.88,4.612-20.398,7.72c-6.464,3.123-12.71,6.89-17.326,11.892c-2.264,2.503-4.092,5.303-5.002,8.327
			c-0.94,3.015-0.985,6.214-0.271,9.378c0.367,1.582,0.926,3.147,1.6,4.686l0.532,1.148l0.61,1.146
			c0.441,0.799,0.868,1.695,1.32,2.416c1.693,2.938,3.829,5.886,6.062,8.615c2.256,2.748,4.805,5.264,7.436,7.686
			c2.673,2.387,5.504,4.611,8.441,6.705c5.909,4.15,12.264,7.725,18.85,10.863c13.221,6.219,27.29,10.782,41.607,14.384
			c14.337,3.569,28.951,6.181,43.656,8.206c14.711,2.02,29.521,3.455,44.367,4.496c29.702,2.031,59.534,2.535,89.332,2.182
			c14.901-0.182,29.797-0.573,44.679-1.147c7.441-0.286,14.879-0.607,22.313-0.976l11.147-0.576l2.786-0.15l1.311-0.08l1.396-0.096
			l5.581-0.379c3.705-0.271,7.473-0.445,11.126-0.795l10.996-0.98c3.656-0.299,7.342-0.708,11.023-1.104l11.037-1.18
			c7.354-0.89,14.704-1.777,22.049-2.666c7.341-0.979,14.675-1.958,22.007-2.937c29.32-4.019,58.522-8.547,87.604-13.138
			c58.159-9.234,115.813-19.023,172.814-28.57c56.994-9.594,113.358-18.851,168.871-27.591
			c111.009-17.56,218.763-32.305,321.373-42.849c12.817-1.387,25.572-2.563,38.231-3.755c12.654-1.242,25.238-2.274,37.724-3.351
			c12.479-1.121,24.888-2.002,37.188-2.953c3.074-0.235,6.145-0.47,9.208-0.703l2.296-0.172l2.387-0.146l4.575-0.271
			c6.094-0.363,12.163-0.724,18.206-1.082c6.047-0.348,12.051-0.741,18.062-1.048c6.038-0.231,12.05-0.462,18.036-0.692
			c5.984-0.229,11.943-0.457,17.874-0.685c1.482-0.054,2.963-0.107,4.442-0.161c1.477-0.025,2.951-0.052,4.426-0.078
			c2.946-0.049,5.887-0.098,8.82-0.146c5.865-0.097,11.705-0.191,17.516-0.288c2.904-0.048,5.803-0.096,8.693-0.144
			c2.893,0.01,5.776,0.019,8.654,0.027c5.754,0.021,11.48,0.043,17.178,0.064c2.848,0.012,5.689,0.021,8.523,0.033
			c2.834,0.006,5.66,0.012,8.479,0.101c90.218,1.536,172.688,9.308,245.103,20.14c36.229,5.33,69.923,11.646,100.911,18.187
			c30.99,6.544,59.272,13.376,84.639,20.192c50.758,13.574,89.845,26.939,116.213,36.7c13.18,4.904,23.168,8.972,29.873,11.776
			c6.699,2.818,10.117,4.4,10.117,4.4l-0.725,1.646c0,0-3.439-1.425-10.223-3.963c-6.78-2.536-16.875-6.229-30.184-10.628
			c-13.305-4.407-29.789-9.623-49.32-15.22c-19.539-5.572-42.076-11.702-67.527-17.703c-25.446-6.008-53.74-12.13-84.711-17.885
			c-15.478-2.918-31.647-5.608-48.43-8.307c-8.404-1.275-16.959-2.575-25.66-3.896c-8.722-1.183-17.59-2.385-26.604-3.607
			c-36.085-4.648-74.622-8.426-115.315-11.259c-40.694-2.769-83.566-4.489-128.305-4.509c-2.796-0.053-5.6-0.023-8.409,0.007
			c-2.811,0.026-5.628,0.051-8.454,0.076c-5.648,0.051-11.326,0.102-17.031,0.153c-2.854,0.026-5.713,0.055-8.579,0.081
			c-2.866,0.084-5.739,0.168-8.619,0.252c-5.759,0.169-11.546,0.339-17.36,0.509c-2.906,0.084-5.82,0.17-8.74,0.254
			c-1.461,0.041-2.922,0.082-4.387,0.123c-1.459,0.068-2.921,0.137-4.384,0.207c-5.85,0.284-11.728,0.571-17.63,0.859
			s-11.831,0.577-17.785,0.867c-5.975,0.367-11.998,0.825-18.033,1.236c-6.039,0.422-12.104,0.846-18.193,1.271l-4.572,0.32
			l-2.193,0.156l-2.285,0.195c-3.046,0.256-6.099,0.515-9.157,0.771c-12.235,1.044-24.573,2.016-36.989,3.23
			c-12.42,1.17-24.938,2.295-37.53,3.631c-12.597,1.285-25.284,2.571-38.049,3.992c-102.14,11.114-209.56,25.814-320.516,42.528
			c-55.481,8.345-111.833,17.28-168.901,26.341c-57.069,9.047-114.823,18.393-173.208,27.097c-29.193,4.347-58.546,8.519-88.1,12.16
			c-7.395,0.866-14.797,1.733-22.203,2.602c-7.425,0.777-14.854,1.555-22.289,2.333l-11.185,1.016
			c-3.728,0.34-7.451,0.693-11.226,0.941l-11.286,0.822c-3.774,0.297-7.46,0.407-11.195,0.619l-5.587,0.275l-1.397,0.068
			l-1.483,0.06l-2.804,0.095l-11.222,0.352c-7.483,0.219-14.973,0.39-22.466,0.526c-14.987,0.274-29.994,0.363-45.01,0.243
			c-30.032-0.253-60.122-1.369-90.135-4.033c-15.004-1.348-29.988-3.097-44.899-5.442c-14.908-2.347-29.748-5.313-44.379-9.237
			c-14.62-3.926-29.063-8.845-42.797-15.568c-6.844-3.395-13.496-7.268-19.737-11.799c-3.106-2.287-6.112-4.727-8.964-7.355
			c-2.818-2.667-5.536-5.459-7.982-8.503c-2.446-3.073-4.678-6.194-6.666-9.746c-0.52-0.869-0.882-1.667-1.33-2.503l-0.685-1.33
			l-0.627-1.395c-0.8-1.881-1.479-3.845-1.929-5.9c-0.895-4.104-0.8-8.596,0.543-12.686c1.304-4.113,3.73-7.65,6.476-10.613
			c5.594-5.912,12.422-9.839,19.306-13.115c6.933-3.233,14.086-5.733,21.3-7.867c14.442-4.235,29.129-7.085,43.837-9.32
			c14.716-2.206,29.469-3.801,44.213-4.974c29.494-2.306,58.942-3.129,88.225-2.929c14.643,0.084,29.247,0.432,43.801,1.045
			c14.554,0.591,29.062,1.422,43.507,2.547c28.891,2.242,57.561,5.447,85.83,10.521c3.525,0.64,7.068,1.327,10.58,2.041
			c3.512,0.711,6.988,1.51,10.48,2.258c3.491,0.738,6.965,1.552,10.435,2.379c3.471,0.812,6.94,1.621,10.387,2.521
			c13.811,3.48,27.496,7.348,40.954,11.873c13.452,4.536,26.685,9.725,39.475,15.959c6.358,3.199,12.638,6.58,18.694,10.402
			c6.035,3.854,11.886,8.063,17.357,12.824c5.466,4.757,10.553,10.082,14.894,16.08c4.336,5.988,7.921,12.657,10.321,19.779
			l0.819,2.695l0.404,1.349l0.324,1.369l0.639,2.741c0.176,0.919,0.32,1.844,0.479,2.767c0.358,1.843,0.479,3.705,0.696,5.56
			c0.085,0.938,0.109,1.924,0.161,2.883c0.043,0.959,0.104,1.979,0.079,2.776l-0.012,2.546c0.015,0.354-0.054,1.257-0.087,1.594
			l-0.128,1.497c-0.098,2.005-0.561,3.964-0.958,5.932c-0.16,0.996-0.535,1.927-0.822,2.885c-0.314,0.949-0.606,1.91-0.95,2.845
			l-1.227,2.71c-0.425,0.894-0.792,1.829-1.326,2.645c-3.835,6.894-9.13,12.503-14.785,17.2l-4.375,3.288l-1.097,0.818
			c-0.371,0.259-0.754,0.489-1.131,0.735l-2.271,1.448c-2.998,2.023-6.15,3.601-9.255,5.31c-0.773,0.44-1.565,0.812-2.358,1.178
			l-2.378,1.111c-1.588,0.729-3.163,1.506-4.76,2.189c-3.218,1.27-6.411,2.646-9.644,3.813c-3.244,1.105-6.47,2.296-9.721,3.321
			c-3.261,0.971-6.518,1.941-9.77,2.908c-13.062,3.546-26.164,6.197-39.207,8.5c-13.061,2.078-26.062,3.895-38.994,5.165
			c-3.233,0.333-6.46,0.665-9.682,0.997c-3.224,0.26-6.442,0.519-9.654,0.776c-3.213,0.253-6.42,0.505-9.622,0.757
			c-3.202,0.188-6.399,0.379-9.589,0.566c-3.19,0.188-6.375,0.376-9.555,0.562c-3.178,0.137-6.351,0.272-9.519,0.407
			c-6.333,0.246-12.647,0.568-18.931,0.651c-25.146,0.713-49.885,0.568-74.191,0.113c-6.074-0.144-12.124-0.286-18.146-0.428
			c-6.023-0.145-12.011-0.412-17.978-0.611c-5.964-0.233-11.908-0.385-17.812-0.684c-5.906-0.285-11.785-0.57-17.637-0.854
			c-2.926-0.144-5.845-0.287-8.756-0.43c-2.913-0.173-5.819-0.345-8.718-0.517c-5.797-0.349-11.567-0.694-17.308-1.04
			c-5.75-0.322-11.438-0.725-17.093-1.128c-5.66-0.397-11.291-0.794-16.892-1.187c-45.004-3.327-87.996-8.094-128.652-14.259
			c-40.664-6.104-78.981-13.528-114.693-21.745c-71.44-16.445-132.355-36.244-181.295-55.437
			c-48.997-19.126-86.043-37.585-110.695-51.146c-12.322-6.807-21.569-12.374-27.725-16.252c-3.072-1.949-5.381-3.459-6.921-4.486
			c-1.532-1.045-2.31-1.576-2.31-1.576L1265.303,2885.486z"/>
	</g>
</g>
<g id="country">
	<path fill="#FFFFFF" d="M3436.42,2546.168l17.182,23.18l-37.998,27.68l0.346,65.896c0.008,16.274,13.496,27.246,26.066,26.019
		l0.02,30.513l-109.74-0.348l-0.01-29.293h1.223c15.941-0.008,23.902-8.954,23.898-26.457l-0.035-66.301l-39.557-27.231
		l17.459-23.604l-36.512-79.708c-5.22-8.947-10.742-13.416-16.256-13.416c-1.229,0-2.452,0.408-3.68,0.813l-0.019-33.355
		l103.595-0.459l-0.279,32.541c-3.377-1.219-6.142-1.625-8.59-1.619c-5.82,0-8.881,2.852-8.881,8.549
		c0.002,5.288,5.225,18.706,15.656,40.26l19.938,41.069c3.681-6.102,10.102-17.899,19.297-34.582
		c9.792-18.312,14.698-31.74,14.688-40.283c-0.009-9.356-5.216-14.231-15.327-14.223c-1.842,0-3.684,0-5.83,0.407l-0.33-31.323
		l91.346-1.674l-0.287,34.575c-7.053,0.414-14.713,4.484-22.982,13.028c-6.744,6.918-12.56,15.059-17.15,24.416L3436.42,2546.168z"
		/>
	<path fill="#FFFFFF" d="M2984.049,2570.006l22.045-29.305l-0.029-50.846c-0.003-22.375-5.531-33.35-16.258-33.347
		c-2.141,0-4.286,0.406-6.738,1.628l-0.021-38.234c7.354-0.005,45.662-0.838,114.934-2.503c21.766-0.013,39.855,9.337,53.654,28.447
		c13.809,19.113,20.865,43.109,20.883,71.991c0.008,10.983-1.523,20.743-4.579,29.693l10.739,21.149l-37.088,12.635
		c-3.672,2.029-7.656,3.25-11.637,4.477c9.508,6.498,17.477,17.072,23.918,31.309l10.446,29.688
		c5.826,13.823,11.042,20.739,15.94,20.739c6.742-0.006,13.482-8.139,20.215-24.829c4.604,10.985,6.764,21.151,6.764,30.509
		c0.014,13.831-4.275,25.221-12.856,34.582c-8.271,9.361-17.767,13.839-28.499,13.844c-19.002,0.018-33.414-10.545-43.23-32.113
		c-3.383-12.611-8.902-30.904-16.271-55.305c-8.289-24.408-17.797-36.605-28.842-36.6c-11.33,0.004-16.855,4.89-16.844,15.055
		l0.021,36.614c0.004,19.528,9.818,37.421,24.226,37.817l0.022,31.729c-3.98,1.221-37.699,1.238-100.836,0.463l-0.018-27.657
		c13.182-2.051,22.062-17.102,22.047-34.598l-0.023-57.357L2984.049,2570.006z M3115.178,2473.527
		c-4.598-8.54-11.041-12.607-19.924-12.603c-22.068,0.013-33.098,12.631-33.086,37.444l0.029,65.088
		c3.986,1.214,7.967,2.024,11.649,2.024c28.504-0.014,47.494-24.846,47.479-62.67
		C3121.32,2490.607,3119.162,2480.843,3115.178,2473.527"/>
	<path fill="#FFFFFF" d="M1653.864,2570.306l-21.439,30.509c1.542,15.057,4.609,28.889,8.911,41.498
		c9.515,28.059,23.315,42.289,42.008,42.274c13.489,0,25.437-6.925,35.549-20.759c9.493-12.618,15.313-28.072,18.061-46.388
		l22.071,10.979c-2.435,27.252-11.928,50.439-28.775,69.568c-16.844,18.723-35.539,28.094-56.381,28.102
		c-30.039,0.015-53.955-15.029-72.049-44.707c-13.812-22.773-21.792-50.027-24.26-81.348l-21.779-29.275l22.972-30.521
		c3.048-27.254,9.78-50.854,19.883-71.197c16.841-33.764,41.047-50.464,72.006-50.478c17.164-0.006,36.475,2.018,58.241,6.477
		l18.699,1.62l0.049,99.252l-18.083,0.822c-8.303-49.216-24.563-73.61-48.468-73.597c-17.469,0.007-30.951,14.25-40.129,42.322
		c-4.59,13.831-7.648,28.886-9.173,44.751L1653.864,2570.306z"/>
	<path fill="#FFFFFF" d="M2059.665,2570.091l-22.05,31.336c-3.359,28.878-11.311,54.507-23.864,76.884
		c-18.683,33.371-43.192,50.062-72.923,50.073c-28.809,0.019-52.729-16.642-71.44-49.997c-13.195-23.574-21.488-50.02-24.562-79.309
		l-21.168-28.457l21.743-29.305c3.36-27.661,11.626-52.476,24.177-74.862c18.987-33.358,43.499-50.055,73.231-50.069
		c29.116-0.017,52.728,16.653,71.136,49.999c11.964,21.552,19.948,45.954,23.332,73.204L2059.665,2570.091z M1952.394,2570.549
		l22.663-30.117c-0.929-10.974-2.158-21.961-4-32.941c-5.844-34.979-15.356-52.465-28.227-52.459
		c-20.539,0.007-32.785,28.492-37.044,85.035l22.086,30.094l-22.364,31.742c1.237,15.049,3.698,30.498,7.076,45.552
		c7.074,31.313,17.191,46.772,30.372,46.763c20.533-0.012,31.556-30.929,33.357-92.762l-0.611,0.404L1952.394,2570.549z"/>
	<path fill="#FFFFFF" d="M2272.064,2570.383l16.848-22.386l-0.026-49.626c-0.018-30.509-9.221-45.96-27.303-46.358l-0.33-32.543
		l79.082-0.856l0.322,35.797l-1.834,0.004c-13.181,0.008-19.916,9.774-19.909,29.704l0.037,61.828l17.485,23.995l-17.463,24.821
		l0.025,43.116c0.014,25.221-7.947,46.377-24.182,63.475c-15.01,16.271-32.17,24.428-51.481,24.436
		c-23.294,0.01-42.614-10.152-57.947-30.484c-15.337-20.738-23.009-46.354-23.031-77.275l-0.007-17.896l-22.081-29.682l22.05-29.305
		l-0.028-53.286c-0.003-10.166-1.851-19.121-5.534-26.031c-4.294-8.537-10.121-11.786-17.778-10.158l-0.02-30.915l95.628-0.86
		l0.022,31.723c-13.186,0.411-21.761,14.655-21.746,32.557l0.028,55.317l22.39,30.497l-22.356,31.741l0.011,26.85
		c0.021,36.605,13.211,54.902,39.565,54.891c11.652-0.01,20.846-5.299,27.276-15.877c6.124-9.766,9.185-22.384,9.177-38.242
		l-0.021-36.205L2272.064,2570.383z"/>
	<path fill="#FFFFFF" d="M2617.787,2539.688l22.08,30.094l-22.051,31.338l0.062,117.558l-22.689,0.011l-103.375-157.781
		l0.047,91.937c0.014,26.032,8.297,38.64,24.85,37.812l0.013,29.291c-3.065,1.635-17.165,2.447-41.994,2.053
		c-24.821,0.012-38.309,0.023-39.841-0.377l-0.015-30.113c12.562-1.624,21.447-15.463,21.435-32.955l-0.029-57.35l-0.611,0.408
		l-23.308-31.312l23.273-31.337l0.612,0.812l-0.018-31.729c-0.009-15.05-2.768-26.845-8.296-36.195
		c-6.132-10.169-14.717-15.452-25.751-15.039l-0.02-36.203l52.408-0.027l110.434,168.345l-0.047-96.001
		c-0.016-26.438-7.686-39.452-23.009-39.444l-0.019-32.543c2.144-0.407,15.021-0.817,38.623-0.83
		c23.596-0.421,36.781-0.427,39.23-0.022l0.021,34.171c-12.569,0.412-22.062,12.619-22.053,29.294L2617.787,2539.688z"/>
	<path fill="#FFFFFF" d="M2837.536,2540.384l21.465,29.278l-21.44,30.113l0.027,54.107c0.01,9.352,1.848,17.895,5.227,25.21
		c3.979,8.134,9.508,11.794,16.557,11.378l0.324,28.482c-3.379,1.223-7.051,2.035-11.651,2.035l-34.333,0.022l-41.373,0.022
		c-2.452,0-4.908,0-7.668-0.404l-0.015-27.662c11.96-2.859,20.229-15.47,20.22-31.329l-0.033-60.61l-23.928-30.902l23.889-30.527
		l-0.023-52.064c-0.008-16.684-5.537-24.81-16.254-24.807c-11.647,0.006-20.527,10.996-26.959,32.555
		c-4.586,15.466-7.034,32.547-7.638,51.26l-20.232-14.635l-0.062-112.673l194.323-0.514l0.057,108.611l-22.362,16.689
		c-1.854-25.628-3.394-41.896-4.624-48.001c-4.303-22.368-11.658-33.75-21.774-33.744c-10.735,0.005-21.761,12.618-21.751,26.854
		L2837.536,2540.384z"/>
</g>
<g id="chapeau">
	<path fill="#FFFFFF" d="M2257,2036c-8.89,0.034,86.407-226.547,137.423-223.244c41.251,2.665,69.752,28.364,107.031,25.651
		c57.987-4.217,137.771-54.475,183.511-47.327c68.918,10.772,125.868,297.399,108.035,324.92
		c-22.979,35.462-121.541-4.629-189.52-22.227C2558,2082,2476.188,2062.894,2403,2051C2323,2038,2276.5,2035.92,2257,2036"/>
	<path fill-rule="evenodd" clip-rule="evenodd" fill="#FFFFFF" d="M2040,2120c0,0,48.078-60,196-60
		c192,0,472.426,110.045,510.305,120.869c37.887,10.82,77.309,19.586,79.375,0c2.062-19.586,0-36.078,0-36.078
		s133.164-95.895,180.391-57.727c60.262,48.704-46.188,214.956-176.07,212.936c-182.449-2.832-440.404-187.89-588-202
		C2093.356,2083.79,2040,2120,2040,2120"/>
</g>
<g id="etoile">
	<path d="M2688.436,1904.761l-4.76,56.203c0,0-60.394-18.511-63.982-17.304c-3.587,1.197,72.314,57.355,73.506,65.72
		c1.197,8.369-27.385,89.692-27.385,89.692s48.389-65.192,57.959-59.214c9.564,5.971,46.047,33.452,46.047,33.452
		s-25.725-47.221-21.549-61.566c2.975-10.221,18.506-37.607,18.506-37.607s-41.246,2.945-43.635-1.241
		C2720.746,1968.712,2688.436,1904.761,2688.436,1904.761"/>
</g>
<g id="danse_et_...">
	<g>
		<path fill="#FFFFFF" d="M2326.037,3233.945v-72.63h23.345c5.81,0,10.669,0.589,14.578,1.765c3.907,1.177,7.349,2.871,10.324,5.084
			c4.496,3.32,8.041,7.54,10.635,12.658c2.594,5.119,3.891,10.723,3.891,16.809c0,6.087-1.281,11.69-3.839,16.809
			c-2.56,5.119-6.088,9.338-10.583,12.658c-2.975,2.214-6.433,3.908-10.376,5.084c-3.942,1.177-8.819,1.764-14.629,1.764H2326.037z
			 M2378.434,3197.631c0-4.081-0.778-7.886-2.334-11.413c-1.557-3.528-3.719-6.501-6.485-8.924
			c-2.283-2.005-5.032-3.527-8.249-4.564c-3.217-1.038-7.385-1.557-12.503-1.557h-12.451v52.916h12.451
			c5.118,0,9.286-0.52,12.503-1.557c3.216-1.038,5.966-2.559,8.249-4.565c2.766-2.42,4.928-5.396,6.485-8.923
			C2377.656,3205.516,2378.434,3201.713,2378.434,3197.631z"/>
		<path fill="#FFFFFF" d="M2438.301,3229.483c-2.007,1.8-4.29,3.165-6.848,4.099c-2.56,0.934-5.292,1.4-8.197,1.4
			c-2.214,0-4.393-0.295-6.537-0.882c-2.145-0.587-4.046-1.364-5.707-2.334c-3.735-2.213-6.744-5.24-9.027-9.079
			c-2.282-3.839-3.424-8.213-3.424-13.125c0-4.91,1.158-9.303,3.476-13.177c2.316-3.873,5.343-6.916,9.079-9.131
			c1.66-0.968,3.492-1.729,5.499-2.282c2.005-0.553,4.15-0.83,6.433-0.83c2.766,0,5.447,0.433,8.042,1.297
			c2.594,0.865,4.997,2.267,7.211,4.202v-4.462h9.545v48.766h-9.545V3229.483z M2437.989,3200.432
			c-1.522-2.005-3.476-3.665-5.862-4.979c-2.387-1.313-5.068-1.972-8.042-1.972c-2.352,0-4.497,0.433-6.433,1.297
			c-1.938,0.865-3.58,2.041-4.929,3.527c-1.349,1.488-2.404,3.2-3.165,5.137c-0.762,1.937-1.141,3.978-1.141,6.121
			c0,2.215,0.397,4.29,1.193,6.226c0.794,1.938,1.919,3.631,3.372,5.084c1.453,1.452,3.165,2.611,5.136,3.476
			c1.971,0.866,4.132,1.297,6.485,1.297c2.49,0,4.928-0.604,7.315-1.815c2.386-1.209,4.41-2.922,6.069-5.136V3200.432z"/>
		<path fill="#FFFFFF" d="M2474.407,3189.849c1.313-1.245,3.199-2.506,5.655-3.787c2.454-1.279,5.447-1.919,8.975-1.919
			c3.596,0,6.934,0.778,10.013,2.334c3.076,1.557,5.654,3.649,7.73,6.277c1.59,2.007,2.783,4.342,3.578,7.004
			c0.795,2.663,1.193,6.105,1.193,10.323v23.864h-9.855v-24.383c0-3.112-0.26-5.499-0.779-7.159c-0.518-1.66-1.229-3.043-2.126-4.15
			c-1.177-1.452-2.646-2.61-4.41-3.476c-1.764-0.864-3.649-1.297-5.655-1.297c-3.252,0-6.036,0.71-8.353,2.127
			c-2.318,1.419-4.202,3.026-5.655,4.824v33.514h-9.857v-48.766h9.546V3189.849z"/>
		<path fill="#FFFFFF" d="M2561.146,3220.249c0,2.283-0.503,4.342-1.505,6.174c-1.003,1.834-2.353,3.372-4.046,4.617
			c-1.696,1.245-3.632,2.215-5.811,2.905s-4.445,1.037-6.796,1.037c-7.817,0-14.389-2.246-19.714-6.744l5.084-6.744
			c4.495,3.253,9.303,4.877,14.422,4.877c2.144,0,4.099-0.535,5.862-1.608c1.764-1.071,2.646-2.576,2.646-4.514
			c0-1.105-0.311-2.022-0.934-2.749c-0.622-0.727-1.471-1.349-2.542-1.867c-1.073-0.52-2.301-0.969-3.684-1.35
			c-1.384-0.379-2.801-0.778-4.254-1.193c-1.799-0.482-3.597-1.054-5.396-1.712c-1.799-0.656-3.407-1.504-4.824-2.542
			c-1.419-1.037-2.578-2.351-3.476-3.942c-0.9-1.591-1.349-3.596-1.349-6.018c0-2.559,0.534-4.773,1.607-6.641
			c1.072-1.868,2.455-3.389,4.15-4.565c1.694-1.175,3.614-2.058,5.759-2.646c2.144-0.587,4.322-0.882,6.536-0.882
			c3.528,0,6.623,0.519,9.286,1.556c2.662,1.038,4.963,2.318,6.9,3.84l-4.772,6.744c-1.593-1.106-3.286-1.972-5.085-2.595
			c-1.799-0.622-3.701-0.934-5.706-0.934c-2.422,0-4.497,0.537-6.226,1.608c-1.729,1.073-2.594,2.578-2.594,4.514
			c0,0.83,0.26,1.556,0.778,2.179c0.519,0.622,1.228,1.159,2.127,1.608c0.898,0.45,1.953,0.865,3.164,1.245
			c1.21,0.381,2.473,0.744,3.787,1.089c1.868,0.555,3.787,1.159,5.759,1.816c1.972,0.658,3.77,1.556,5.396,2.697
			c1.624,1.142,2.939,2.578,3.942,4.306C2560.644,3215.547,2561.146,3217.691,2561.146,3220.249z"/>
		<path fill="#FFFFFF" d="M2579.822,3211.638c0.208,2.075,0.709,3.995,1.505,5.759c0.794,1.764,1.85,3.286,3.164,4.565
			c1.313,1.28,2.87,2.3,4.669,3.061c1.798,0.762,3.77,1.142,5.914,1.142c3.251,0,6.087-0.657,8.509-1.972
			c2.42-1.313,4.461-2.766,6.121-4.358l5.811,6.019c-2.49,2.905-5.482,5.153-8.975,6.744c-3.494,1.59-7.454,2.386-11.88,2.386
			c-3.598,0-6.884-0.64-9.857-1.919c-2.975-1.279-5.534-3.043-7.678-5.292c-2.145-2.247-3.805-4.928-4.98-8.041
			c-1.177-3.112-1.764-6.501-1.764-10.168c0-3.665,0.587-7.056,1.764-10.168c1.176-3.112,2.836-5.793,4.98-8.041
			c2.144-2.247,4.686-4.011,7.626-5.292c2.939-1.279,6.174-1.919,9.701-1.919c3.389,0,6.501,0.64,9.338,1.919
			c2.836,1.281,5.273,3.062,7.315,5.344c2.039,2.282,3.631,4.98,4.772,8.093c1.142,3.113,1.712,6.469,1.712,10.064
			c0,0.208,0,0.484,0,0.83c0,0.347-0.036,0.762-0.104,1.245H2579.822z M2594.452,3192.754c-3.183,0-6.054,0.97-8.611,2.905
			c-2.561,1.938-4.255,4.497-5.085,7.678h26.562c-0.348-1.521-0.952-2.938-1.816-4.254c-0.865-1.312-1.867-2.438-3.009-3.372
			s-2.404-1.66-3.787-2.179C2597.321,3193.014,2595.904,3192.754,2594.452,3192.754z"/>
		<path fill="#FFFFFF" d="M2662.411,3211.638c0.208,2.075,0.709,3.995,1.505,5.759c0.794,1.764,1.85,3.286,3.164,4.565
			c1.313,1.28,2.87,2.3,4.669,3.061c1.798,0.762,3.77,1.142,5.914,1.142c3.251,0,6.087-0.657,8.509-1.972
			c2.42-1.313,4.461-2.766,6.121-4.358l5.811,6.019c-2.49,2.905-5.482,5.153-8.975,6.744c-3.494,1.59-7.454,2.386-11.88,2.386
			c-3.598,0-6.884-0.64-9.857-1.919c-2.975-1.279-5.534-3.043-7.678-5.292c-2.145-2.247-3.805-4.928-4.98-8.041
			c-1.177-3.112-1.764-6.501-1.764-10.168c0-3.665,0.587-7.056,1.764-10.168c1.176-3.112,2.836-5.793,4.98-8.041
			c2.144-2.247,4.686-4.011,7.626-5.292c2.939-1.279,6.174-1.919,9.701-1.919c3.389,0,6.501,0.64,9.338,1.919
			c2.836,1.281,5.273,3.062,7.315,5.344c2.039,2.282,3.631,4.98,4.772,8.093c1.142,3.113,1.712,6.469,1.712,10.064
			c0,0.208,0,0.484,0,0.83c0,0.347-0.036,0.762-0.104,1.245H2662.411z M2677.041,3192.754c-3.183,0-6.054,0.97-8.611,2.905
			c-2.561,1.938-4.255,4.497-5.085,7.678h26.562c-0.348-1.521-0.952-2.938-1.816-4.254c-0.865-1.312-1.867-2.438-3.009-3.372
			s-2.404-1.66-3.787-2.179C2679.91,3193.014,2678.493,3192.754,2677.041,3192.754z"/>
		<path fill="#FFFFFF" d="M2739.812,3224.192c0.275,0.622,0.623,1.366,1.038,2.23c0.415,0.866,0.83,1.678,1.245,2.438
			c0.415,0.762,0.934,1.695,1.556,2.802c-3.32,2.214-6.917,3.319-10.79,3.319c-2.422,0-4.721-0.484-6.9-1.452
			c-2.179-0.968-3.994-2.351-5.447-4.15c-1.177-1.383-2.022-3.061-2.542-5.032c-0.519-1.971-0.777-4.478-0.777-7.522v-22.826
			h-11.414v-8.819h11.414v-15.667h9.856v15.667h14.525v8.819h-14.525v23.138c0,1.938,0.12,3.372,0.363,4.306
			c0.241,0.935,0.639,1.712,1.193,2.335c1.245,1.452,3.009,2.179,5.291,2.179c1.038,0,2.075-0.155,3.113-0.467
			C2738.049,3225.178,2738.982,3224.747,2739.812,3224.192z"/>
		<path fill="#FFFFFF" d="M2792.208,3183.208v50.737h-10.168v-72.63h7.263l27.703,40.673l27.288-40.673h7.263v72.63h-10.168v-50.841
			l-23.553,34.759h-2.075L2792.208,3183.208z"/>
		<path fill="#FFFFFF" d="M2890.049,3234.982c-3.527,0-6.796-0.726-9.805-2.179c-3.009-1.452-5.518-3.458-7.522-6.018
			c-1.522-1.867-2.646-4.08-3.372-6.641c-0.727-2.558-1.09-5.914-1.09-10.064v-24.901h9.857v26.458c0,2.49,0.241,4.479,0.726,5.966
			c0.483,1.488,1.176,2.75,2.075,3.787c1.105,1.315,2.49,2.353,4.15,3.113c1.66,0.762,3.424,1.141,5.292,1.141
			c3.043,0,5.74-0.742,8.093-2.23c2.351-1.486,4.219-3.061,5.603-4.721v-33.514h9.857v48.766h-9.546v-4.462
			c-0.555,0.555-1.297,1.142-2.23,1.765c-0.935,0.622-2.008,1.211-3.217,1.764c-1.211,0.555-2.577,1.02-4.099,1.4
			C2893.299,3234.792,2891.709,3234.982,2890.049,3234.982z"/>
		<path fill="#FFFFFF" d="M2964.442,3220.249c0,2.283-0.503,4.342-1.505,6.174c-1.003,1.834-2.353,3.372-4.046,4.617
			c-1.696,1.245-3.632,2.215-5.811,2.905s-4.445,1.037-6.796,1.037c-7.817,0-14.389-2.246-19.714-6.744l5.084-6.744
			c4.495,3.253,9.303,4.877,14.422,4.877c2.144,0,4.099-0.535,5.862-1.608c1.764-1.071,2.646-2.576,2.646-4.514
			c0-1.105-0.311-2.022-0.934-2.749c-0.622-0.727-1.471-1.349-2.542-1.867c-1.073-0.52-2.301-0.969-3.684-1.35
			c-1.384-0.379-2.801-0.778-4.254-1.193c-1.799-0.482-3.597-1.054-5.396-1.712c-1.799-0.656-3.407-1.504-4.824-2.542
			c-1.419-1.037-2.578-2.351-3.476-3.942c-0.9-1.591-1.349-3.596-1.349-6.018c0-2.559,0.534-4.773,1.607-6.641
			c1.072-1.868,2.455-3.389,4.15-4.565c1.694-1.175,3.614-2.058,5.759-2.646c2.144-0.587,4.322-0.882,6.536-0.882
			c3.528,0,6.623,0.519,9.286,1.556c2.662,1.038,4.963,2.318,6.9,3.84l-4.772,6.744c-1.593-1.106-3.286-1.972-5.085-2.595
			c-1.799-0.622-3.701-0.934-5.706-0.934c-2.422,0-4.497,0.537-6.226,1.608c-1.729,1.073-2.594,2.578-2.594,4.514
			c0,0.83,0.26,1.556,0.778,2.179c0.519,0.622,1.228,1.159,2.127,1.608c0.898,0.45,1.953,0.865,3.164,1.245
			c1.21,0.381,2.473,0.744,3.787,1.089c1.868,0.555,3.787,1.159,5.759,1.816c1.972,0.658,3.77,1.556,5.396,2.697
			c1.624,1.142,2.939,2.578,3.942,4.306C2963.939,3215.547,2964.442,3217.691,2964.442,3220.249z"/>
		<path fill="#FFFFFF" d="M2975.647,3167.853c0-1.798,0.622-3.336,1.867-4.617c1.245-1.279,2.766-1.92,4.565-1.92
			c1.798,0,3.336,0.641,4.617,1.92c1.279,1.281,1.919,2.819,1.919,4.617c0,1.8-0.64,3.32-1.919,4.565
			c-1.281,1.245-2.819,1.867-4.617,1.867c-1.8,0-3.32-0.622-4.565-1.867S2975.647,3169.652,2975.647,3167.853z M2977.203,3185.18
			h9.857v48.766h-9.857V3185.18z"/>
		<path fill="#FFFFFF" d="M3039.871,3229.691c-4.082,3.527-8.992,5.291-14.733,5.291c-2.214,0-4.394-0.295-6.536-0.882
			c-2.146-0.587-4.047-1.364-5.707-2.334c-3.735-2.213-6.744-5.24-9.026-9.079c-2.283-3.839-3.424-8.213-3.424-13.125
			c0-4.91,1.157-9.303,3.476-13.177c2.316-3.873,5.344-6.916,9.078-9.131c1.66-0.968,3.492-1.729,5.499-2.282
			c2.006-0.553,4.15-0.83,6.434-0.83c2.766,0,5.447,0.433,8.041,1.297c2.594,0.865,4.996,2.267,7.211,4.202v-4.462h9.546v73.667
			h-9.857V3229.691z M3039.871,3200.432c-1.522-2.005-3.476-3.665-5.862-4.979c-2.386-1.313-5.067-1.972-8.041-1.972
			c-2.353,0-4.497,0.433-6.433,1.297c-1.938,0.865-3.58,2.041-4.929,3.527c-1.349,1.488-2.404,3.2-3.164,5.137
			c-0.763,1.937-1.142,3.978-1.142,6.121c0,2.215,0.397,4.29,1.193,6.226c0.794,1.938,1.919,3.631,3.372,5.084
			c1.452,1.452,3.164,2.611,5.136,3.476c1.972,0.866,4.133,1.297,6.484,1.297c2.49,0,4.929-0.604,7.315-1.815
			c2.386-1.209,4.409-2.922,6.069-5.136V3200.432z"/>
		<path fill="#FFFFFF" d="M3087.702,3234.982c-3.527,0-6.796-0.726-9.805-2.179c-3.009-1.452-5.518-3.458-7.522-6.018
			c-1.522-1.867-2.646-4.08-3.372-6.641c-0.727-2.558-1.09-5.914-1.09-10.064v-24.901h9.857v26.458c0,2.49,0.241,4.479,0.726,5.966
			c0.483,1.488,1.176,2.75,2.075,3.787c1.105,1.315,2.49,2.353,4.15,3.113c1.66,0.762,3.424,1.141,5.292,1.141
			c3.043,0,5.74-0.742,8.093-2.23c2.351-1.486,4.219-3.061,5.603-4.721v-33.514h9.857v48.766h-9.546v-4.462
			c-0.555,0.555-1.297,1.142-2.23,1.765c-0.935,0.622-2.008,1.211-3.217,1.764c-1.211,0.555-2.577,1.02-4.099,1.4
			C3090.952,3234.792,3089.362,3234.982,3087.702,3234.982z"/>
		<path fill="#FFFFFF" d="M3134.495,3211.638c0.208,2.075,0.709,3.995,1.505,5.759c0.794,1.764,1.85,3.286,3.164,4.565
			c1.313,1.28,2.87,2.3,4.669,3.061c1.798,0.762,3.77,1.142,5.914,1.142c3.251,0,6.087-0.657,8.509-1.972
			c2.42-1.313,4.461-2.766,6.121-4.358l5.811,6.019c-2.49,2.905-5.482,5.153-8.975,6.744c-3.494,1.59-7.454,2.386-11.88,2.386
			c-3.598,0-6.884-0.64-9.857-1.919c-2.975-1.279-5.534-3.043-7.678-5.292c-2.145-2.247-3.805-4.928-4.98-8.041
			c-1.177-3.112-1.764-6.501-1.764-10.168c0-3.665,0.587-7.056,1.764-10.168c1.176-3.112,2.836-5.793,4.98-8.041
			c2.144-2.247,4.686-4.011,7.626-5.292c2.939-1.279,6.174-1.919,9.701-1.919c3.389,0,6.501,0.64,9.338,1.919
			c2.836,1.281,5.273,3.062,7.315,5.344c2.039,2.282,3.631,4.98,4.772,8.093c1.142,3.113,1.712,6.469,1.712,10.064
			c0,0.208,0,0.484,0,0.83c0,0.347-0.036,0.762-0.104,1.245H3134.495z M3149.125,3192.754c-3.183,0-6.054,0.97-8.611,2.905
			c-2.561,1.938-4.255,4.497-5.085,7.678h26.562c-0.348-1.521-0.952-2.938-1.816-4.254c-0.865-1.312-1.867-2.438-3.009-3.372
			s-2.404-1.66-3.787-2.179C3151.994,3193.014,3150.577,3192.754,3149.125,3192.754z"/>
		<path fill="#FFFFFF" d="M3247.277,3229.483c-2.007,1.8-4.29,3.165-6.848,4.099c-2.561,0.934-5.292,1.4-8.197,1.4
			c-2.214,0-4.394-0.295-6.536-0.882c-2.146-0.587-4.047-1.364-5.707-2.334c-3.735-2.213-6.744-5.24-9.026-9.079
			c-2.283-3.839-3.424-8.213-3.424-13.125c0-4.91,1.157-9.303,3.476-13.177c2.316-3.873,5.344-6.916,9.078-9.131
			c1.66-0.968,3.492-1.729,5.499-2.282c2.006-0.553,4.15-0.83,6.434-0.83c2.628,0,5.222,0.433,7.781,1.297
			c2.559,0.865,4.945,2.196,7.159,3.994v-29.155h9.857v73.667h-9.546V3229.483z M3246.966,3200.432
			c-1.522-2.005-3.476-3.665-5.862-4.979c-2.386-1.313-5.067-1.972-8.041-1.972c-2.353,0-4.497,0.433-6.433,1.297
			c-1.938,0.865-3.58,2.041-4.929,3.527c-1.349,1.488-2.404,3.2-3.164,5.137c-0.763,1.937-1.142,3.978-1.142,6.121
			c0,2.215,0.397,4.29,1.193,6.226c0.794,1.938,1.919,3.631,3.372,5.084c1.452,1.452,3.164,2.611,5.136,3.476
			c1.972,0.866,4.133,1.297,6.484,1.297c2.49,0,4.929-0.604,7.315-1.815c2.386-1.209,4.409-2.922,6.069-5.136V3200.432z"/>
		<path fill="#FFFFFF" d="M3279.751,3211.638c0.208,2.075,0.709,3.995,1.505,5.759c0.794,1.764,1.85,3.286,3.164,4.565
			c1.313,1.28,2.87,2.3,4.669,3.061c1.798,0.762,3.77,1.142,5.914,1.142c3.251,0,6.087-0.657,8.509-1.972
			c2.42-1.313,4.461-2.766,6.121-4.358l5.811,6.019c-2.49,2.905-5.482,5.153-8.975,6.744c-3.494,1.59-7.454,2.386-11.88,2.386
			c-3.598,0-6.884-0.64-9.857-1.919c-2.975-1.279-5.534-3.043-7.678-5.292c-2.145-2.247-3.805-4.928-4.98-8.041
			c-1.177-3.112-1.764-6.501-1.764-10.168c0-3.665,0.587-7.056,1.764-10.168c1.176-3.112,2.836-5.793,4.98-8.041
			c2.144-2.247,4.686-4.011,7.626-5.292c2.939-1.279,6.174-1.919,9.701-1.919c3.389,0,6.501,0.64,9.338,1.919
			c2.836,1.281,5.273,3.062,7.315,5.344c2.039,2.282,3.631,4.98,4.772,8.093c1.142,3.113,1.712,6.469,1.712,10.064
			c0,0.208,0,0.484,0,0.83c0,0.347-0.036,0.762-0.104,1.245H3279.751z M3294.381,3192.754c-3.183,0-6.054,0.97-8.611,2.905
			c-2.561,1.938-4.255,4.497-5.085,7.678h26.562c-0.348-1.521-0.952-2.938-1.816-4.254c-0.865-1.312-1.867-2.438-3.009-3.372
			s-2.404-1.66-3.787-2.179C3297.25,3193.014,3295.833,3192.754,3294.381,3192.754z"/>
		<path fill="#FFFFFF" d="M3367.943,3224.089h32.164v9.856h-42.54v-72.63h10.376V3224.089z"/>
		<path fill="#FFFFFF" d="M3446.487,3229.483c-2.007,1.8-4.29,3.165-6.848,4.099c-2.561,0.934-5.292,1.4-8.197,1.4
			c-2.214,0-4.394-0.295-6.536-0.882c-2.146-0.587-4.047-1.364-5.707-2.334c-3.735-2.213-6.744-5.24-9.026-9.079
			c-2.283-3.839-3.424-8.213-3.424-13.125c0-4.91,1.157-9.303,3.476-13.177c2.316-3.873,5.344-6.916,9.078-9.131
			c1.66-0.968,3.492-1.729,5.499-2.282c2.006-0.553,4.15-0.83,6.434-0.83c2.766,0,5.447,0.433,8.041,1.297
			c2.594,0.865,4.996,2.267,7.211,4.202v-4.462h9.546v48.766h-9.546V3229.483z M3446.176,3200.432
			c-1.522-2.005-3.476-3.665-5.862-4.979c-2.386-1.313-5.067-1.972-8.041-1.972c-2.353,0-4.497,0.433-6.433,1.297
			c-1.938,0.865-3.58,2.041-4.929,3.527c-1.349,1.488-2.404,3.2-3.164,5.137c-0.763,1.937-1.142,3.978-1.142,6.121
			c0,2.215,0.397,4.29,1.193,6.226c0.794,1.938,1.919,3.631,3.372,5.084c1.452,1.452,3.164,2.611,5.136,3.476
			c1.972,0.866,4.133,1.297,6.484,1.297c2.49,0,4.929-0.604,7.315-1.815c2.386-1.209,4.409-2.922,6.069-5.136V3200.432z"/>
		<path fill="#FFFFFF" d="M3471.491,3167.853c0-1.798,0.622-3.336,1.867-4.617c1.245-1.279,2.766-1.92,4.565-1.92
			c1.798,0,3.336,0.641,4.617,1.92c1.279,1.281,1.919,2.819,1.919,4.617c0,1.8-0.64,3.32-1.919,4.565
			c-1.281,1.245-2.819,1.867-4.617,1.867c-1.8,0-3.32-0.622-4.565-1.867S3471.491,3169.652,3471.491,3167.853z M3473.047,3185.18
			h9.857v48.766h-9.857V3185.18z"/>
		<path fill="#FFFFFF" d="M3499.919,3160.278h9.857v73.667h-9.857V3160.278z"/>
		<path fill="#FFFFFF" d="M3526.79,3160.278h9.857v73.667h-9.857V3160.278z"/>
		<path fill="#FFFFFF" d="M3559.576,3211.638c0.208,2.075,0.709,3.995,1.505,5.759c0.794,1.764,1.85,3.286,3.164,4.565
			c1.313,1.28,2.87,2.3,4.669,3.061c1.798,0.762,3.77,1.142,5.914,1.142c3.251,0,6.087-0.657,8.509-1.972
			c2.42-1.313,4.461-2.766,6.121-4.358l5.811,6.019c-2.49,2.905-5.482,5.153-8.975,6.744c-3.494,1.59-7.454,2.386-11.88,2.386
			c-3.598,0-6.884-0.64-9.857-1.919c-2.975-1.279-5.534-3.043-7.678-5.292c-2.145-2.247-3.805-4.928-4.98-8.041
			c-1.177-3.112-1.764-6.501-1.764-10.168c0-3.665,0.587-7.056,1.764-10.168c1.176-3.112,2.836-5.793,4.98-8.041
			c2.144-2.247,4.686-4.011,7.626-5.292c2.939-1.279,6.174-1.919,9.701-1.919c3.389,0,6.501,0.64,9.338,1.919
			c2.836,1.281,5.273,3.062,7.315,5.344c2.039,2.282,3.631,4.98,4.772,8.093c1.142,3.113,1.712,6.469,1.712,10.064
			c0,0.208,0,0.484,0,0.83c0,0.347-0.036,0.762-0.104,1.245H3559.576z M3574.206,3192.754c-3.183,0-6.054,0.97-8.611,2.905
			c-2.561,1.938-4.255,4.497-5.085,7.678h26.562c-0.348-1.521-0.952-2.938-1.816-4.254c-0.865-1.312-1.867-2.438-3.009-3.372
			s-2.404-1.66-3.787-2.179C3577.075,3193.014,3575.658,3192.754,3574.206,3192.754z M3568.499,3177.398l6.744-15.563h10.895
			l-10.895,15.563H3568.499z"/>
		<path fill="#FFFFFF" d="M3687.922,3186.218c2.697,0.415,5.188,1.332,7.471,2.749c2.282,1.419,4.254,3.183,5.914,5.292
			c1.66,2.11,2.973,4.479,3.942,7.107c0.968,2.629,1.452,5.395,1.452,8.3c0,3.46-0.605,6.71-1.815,9.753
			c-1.211,3.045-2.923,5.725-5.136,8.042c-2.215,2.318-4.895,4.149-8.041,5.499c-3.148,1.349-6.624,2.022-10.428,2.022
			c-5.12,0-9.841-1.227-14.163-3.683c-4.323-2.455-7.558-5.931-9.701-10.428l8.612-4.565c0.622,0.97,1.349,1.972,2.179,3.009
			c0.83,1.038,1.85,1.989,3.061,2.854c1.21,0.866,2.628,1.574,4.254,2.127c1.625,0.555,3.544,0.83,5.759,0.83
			c2.144,0,4.133-0.397,5.966-1.193c1.832-0.794,3.424-1.884,4.773-3.269c1.349-1.383,2.402-3.009,3.164-4.876
			c0.761-1.868,1.142-3.907,1.142-6.122c0-2.143-0.399-4.132-1.193-5.966c-0.796-1.832-1.886-3.406-3.269-4.721
			c-2.768-2.628-6.364-3.942-10.79-3.942c-2.423,0-4.428,0.225-6.019,0.674c-1.592,0.451-2.801,0.882-3.631,1.297v-6.744
			l17.534-19.091h-27.91v-9.857h43.578v6.745L3687.922,3186.218z"/>
		<path fill="#FFFFFF" d="M3724.547,3217.863c1.798,2.422,3.977,4.237,6.536,5.447c2.559,1.211,5.36,1.815,8.404,1.815
			c1.936,0,3.787-0.397,5.552-1.193c1.764-0.794,3.319-1.867,4.669-3.216c1.349-1.35,2.402-2.939,3.164-4.773
			c0.761-1.832,1.142-3.787,1.142-5.862c0-2.143-0.363-4.132-1.09-5.966c-0.726-1.832-1.729-3.424-3.009-4.772
			c-1.28-1.349-2.837-2.402-4.669-3.165c-1.834-0.76-3.856-1.141-6.069-1.141c-4.358,0-8.44,1.592-12.243,4.772l-7.16-1.038
			l4.67-37.456h36.314v9.857h-27.91l-1.972,16.497c1.452-0.761,3.061-1.331,4.824-1.712c1.765-0.379,3.51-0.57,5.24-0.57
			c3.32,0,6.415,0.64,9.286,1.919c2.869,1.281,5.359,3.027,7.471,5.24c2.108,2.214,3.751,4.824,4.928,7.833
			c1.176,3.009,1.764,6.243,1.764,9.701c0,3.32-0.622,6.485-1.867,9.494s-2.975,5.654-5.188,7.938
			c-2.215,2.282-4.843,4.098-7.886,5.447c-3.045,1.349-6.365,2.022-9.961,2.022c-4.912,0-9.39-1.054-13.437-3.164
			c-4.046-2.109-7.177-4.929-9.39-8.456L3724.547,3217.863z"/>
	</g>
</g>
<g id="dml">
	<g>
		<path fill="#FFFFFF" d="M3380.421,2985.099h42.1c9.067,0,16.678,0.919,22.831,2.753c6.152,1.837,11.55,4.48,16.192,7.935
			c7.016,5.181,12.521,11.767,16.516,19.754c3.992,7.99,5.991,16.733,5.991,26.231c0,9.5-1.999,18.244-5.991,26.231
			c-3.995,7.99-9.5,14.573-16.516,19.755c-4.643,3.456-10.04,6.1-16.192,7.934c-6.153,1.837-13.764,2.753-22.831,2.753h-42.1
			V2985.099z M3423.33,3072.537c5.396,0,9.821-0.593,13.277-1.781c3.454-1.187,6.421-2.859,8.906-5.02
			c3.238-2.806,5.748-6.287,7.529-10.444c1.781-4.154,2.671-8.663,2.671-13.521s-0.89-9.363-2.671-13.521
			c-1.781-4.154-4.291-7.636-7.529-10.444c-2.485-2.157-5.452-3.83-8.906-5.02c-3.456-1.187-7.881-1.78-13.277-1.78h-14.573v61.53
			H3423.33z"/>
		<path fill="#FFFFFF" d="M3547.685,2985.099l38.375,54.568l37.729-54.568h21.05v113.346h-26.718v-60.559l-29.955,43.233h-4.857
			l-29.956-42.91v60.235h-26.717v-113.346H3547.685z"/>
		<path fill="#FFFFFF" d="M3721.749,2985.099v87.438h45.338v25.907h-73.674v-113.346H3721.749z"/>
	</g>
</g>
</svg>
